<?xml version="1.0" encoding="utf-8"?>
<!-- Generator: Adobe Illustrator 16.0.3, SVG Export Plug-In . SVG Version: 6.00 Build 0)  -->
<!DOCTYPE svg PUBLIC "-//W3C//DTD SVG 1.1//EN" "http://www.w3.org/Graphics/SVG/1.1/DTD/svg11.dtd">
<svg version="1.1" xmlns="http://www.w3.org/2000/svg" xmlns:xlink="http://www.w3.org/1999/xlink" x="0px" y="0px" width="24px"
	 height="24px" viewBox="0 0 24 24" enable-background="new 0 0 24 24" xml:space="preserve">
<g id="Outline_Icons_1_">
	<g id="Outline_Icons">
		<g>
			<path d="M12.5,8c2.206,0,4-1.794,4-4s-1.794-4-4-4s-4,1.794-4,4S10.294,8,12.5,8z M12.5,1c1.654,0,3,1.346,3,3s-1.346,3-3,3
				s-3-1.346-3-3S10.846,1,12.5,1z"/>
			<path d="M18,9H7C6.724,9,6.5,9.224,6.5,9.5c0,4.828,2.083,6.923,3.5,7.789V23.5c0,0.276,0.224,0.5,0.5,0.5h4
				c0.276,0,0.5-0.224,0.5-0.5v-6.211c1.417-0.866,3.5-2.961,3.5-7.789C18.5,9.224,18.276,9,18,9z M14.262,16.561
				C14.101,16.648,14,16.816,14,17v6h-3v-6c0-0.184-0.101-0.352-0.262-0.439C8.753,15.485,7.616,13.167,7.508,10h9.983
				C17.384,13.166,16.247,15.484,14.262,16.561z"/>
			<path d="M6.5,4.517c0.128,0,0.256-0.049,0.354-0.146c0.195-0.195,0.195-0.512,0-0.707l-3-3c-0.195-0.195-0.512-0.195-0.707,0
				l-3,3c-0.195,0.195-0.195,0.512,0,0.707s0.512,0.195,0.707,0L3,2.224V11c0,0.276,0.224,0.5,0.5,0.5S4,11.276,4,11V2.224
				L6.146,4.37C6.244,4.468,6.372,4.517,6.5,4.517z"/>
			<path d="M23.854,19.646c-0.195-0.195-0.512-0.195-0.707,0L21,21.793V13c0-0.276-0.224-0.5-0.5-0.5S20,12.724,20,13v8.793
				l-2.146-2.146c-0.195-0.195-0.512-0.195-0.707,0s-0.195,0.512,0,0.707l3,3c0.098,0.098,0.226,0.146,0.354,0.146
				s0.256-0.049,0.354-0.146l3-3C24.049,20.158,24.049,19.842,23.854,19.646z"/>
		</g>
	</g>
	<g id="New_icons_1_">
	</g>
</g>
<g id="Invisible_Shape">
	<rect fill="none" width="24" height="24"/>
</g>
</svg>
