<?xml version="1.0" encoding="utf-8"?>
<!-- Generator: Adobe Illustrator 16.0.3, SVG Export Plug-In . SVG Version: 6.00 Build 0)  -->
<!DOCTYPE svg PUBLIC "-//W3C//DTD SVG 1.1//EN" "http://www.w3.org/Graphics/SVG/1.1/DTD/svg11.dtd">
<svg version="1.1" xmlns="http://www.w3.org/2000/svg" xmlns:xlink="http://www.w3.org/1999/xlink" x="0px" y="0px" width="24px"
	 height="24px" viewBox="0 0 24 24" enable-background="new 0 0 24 24" xml:space="preserve">
<g id="Outline_Icons_1_">
	<g id="Outline_Icons">
		<g>
			<path d="M5.5,9h-5C0.224,9,0,9.224,0,9.5v3c0,1.083,0.336,1.73,1,1.932V18.5C1,18.776,1.224,19,1.5,19h3
				C4.776,19,5,18.776,5,18.5v-4.068c0.663-0.202,0.999-0.849,1-1.932v-3C6,9.224,5.776,9,5.5,9z M5,12.5c-0.001,1-0.278,1-0.5,1
				C4.224,13.5,4,13.724,4,14v4H2v-4c0-0.276-0.224-0.5-0.5-0.5c-0.223,0-0.5,0-0.5-1V10h4V12.5z"/>
			<path d="M23.5,9h-5C18.224,9,18,9.224,18,9.5v3c0,1.083,0.336,1.73,1,1.932V18.5c0,0.276,0.224,0.5,0.5,0.5h3
				c0.276,0,0.5-0.224,0.5-0.5v-4.068c0.663-0.202,0.999-0.849,1-1.932v-3C24,9.224,23.776,9,23.5,9z M23,12.5
				c-0.001,1-0.278,1-0.5,1c-0.276,0-0.5,0.224-0.5,0.5v4h-2v-4c0-0.276-0.224-0.5-0.5-0.5c-0.223,0-0.5,0-0.5-1V10h4V12.5z"/>
			<path d="M15.5,9h-7C8.224,9,8,9.224,8,9.5v5c0,1.208,0.86,2.217,2,2.45v5.55c0,0.276,0.224,0.5,0.5,0.5h3
				c0.276,0,0.5-0.224,0.5-0.5v-5.55c1.14-0.232,2-1.242,2-2.45v-5C16,9.224,15.776,9,15.5,9z M15,14.5c0,0.827-0.673,1.5-1.5,1.5
				c-0.276,0-0.5,0.224-0.5,0.5V22h-2v-5.5c0-0.276-0.224-0.5-0.5-0.5C9.673,16,9,15.327,9,14.5V10h6V14.5z"/>
			<path d="M3,8c1.103,0,2-0.897,2-2c0-1.104-0.897-2-2-2S1,4.896,1,6C1,7.103,1.897,8,3,8z M3,5c0.551,0,1,0.449,1,1
				c0,0.551-0.449,1-1,1S2,6.551,2,6C2,5.449,2.449,5,3,5z"/>
			<path d="M21,8c1.103,0,2-0.897,2-2c0-1.104-0.897-2-2-2s-2,0.896-2,2C19,7.103,19.897,8,21,8z M21,5c0.551,0,1,0.449,1,1
				c0,0.551-0.449,1-1,1s-1-0.449-1-1C20,5.449,20.449,5,21,5z"/>
			<path d="M12,8c1.654,0,3-1.346,3-3s-1.346-3-3-3S9,3.346,9,5S10.346,8,12,8z M12,3c1.103,0,2,0.896,2,2c0,1.103-0.897,2-2,2
				s-2-0.897-2-2C10,3.896,10.897,3,12,3z"/>
		</g>
	</g>
	<g id="New_icons_1_">
	</g>
</g>
<g id="Invisible_Shape">
	<rect fill="none" width="24" height="24"/>
</g>
</svg>
