<?xml version="1.0" encoding="utf-8"?>
<!-- Generator: Adobe Illustrator 16.0.3, SVG Export Plug-In . SVG Version: 6.00 Build 0)  -->
<!DOCTYPE svg PUBLIC "-//W3C//DTD SVG 1.1//EN" "http://www.w3.org/Graphics/SVG/1.1/DTD/svg11.dtd">
<svg version="1.1" xmlns="http://www.w3.org/2000/svg" xmlns:xlink="http://www.w3.org/1999/xlink" x="0px" y="0px" width="24px"
	 height="24px" viewBox="0 0 24 24" enable-background="new 0 0 24 24" xml:space="preserve">
<g id="Outline_Icons_1_">
	<g id="Outline_Icons">
		<g>
			<path fill="none" stroke="#000000" stroke-linejoin="round" stroke-miterlimit="10" d="M4,6.609V8L1.461,8.726
				C0.933,8.877,0.5,9.45,0.5,10v0.5H6"/>
			<path fill="none" stroke="#000000" stroke-linejoin="round" stroke-miterlimit="10" d="M7,6.578V8l2.538,0.726
				C10.067,8.877,10.5,9.45,10.5,10v0.5H5"/>
			<ellipse fill="none" stroke="#000000" stroke-linejoin="round" stroke-miterlimit="10" cx="5.5" cy="3.771" rx="3" ry="3.271"/>
			<path fill="none" stroke="#000000" stroke-linejoin="round" stroke-miterlimit="10" d="M8.469,3.198
				C7.969,3.698,6.539,3.674,6,2.67c-1,1-2.625,1-3.434,0.43"/>
			<path fill="none" stroke="#000000" stroke-linejoin="round" stroke-miterlimit="10" d="M17,6.609V8l-2.539,0.726
				C13.933,8.877,13.5,9.45,13.5,10v0.5H19"/>
			<path fill="none" stroke="#000000" stroke-linejoin="round" stroke-miterlimit="10" d="M20,6.594V8l2.538,0.726
				C23.067,8.877,23.5,9.45,23.5,10v0.5H18"/>
			<ellipse fill="none" stroke="#000000" stroke-linejoin="round" stroke-miterlimit="10" cx="18.5" cy="3.771" rx="3" ry="3.271"/>
			<path fill="none" stroke="#000000" stroke-linejoin="round" stroke-miterlimit="10" d="M21.453,3.195
				c-0.5,0.5-1.914,0.479-2.453-0.525c-1,1-2.625,1-3.434,0.43"/>
			<path fill="none" stroke="#000000" stroke-linejoin="round" stroke-miterlimit="10" d="M10.5,19.609V21l-2.539,0.726
				C7.433,21.877,7,22.45,7,23v0.5h5.5"/>
			<path fill="none" stroke="#000000" stroke-linejoin="round" stroke-miterlimit="10" d="M13.5,19.609V21l2.538,0.726
				C16.567,21.877,17,22.45,17,23v0.5h-5.5"/>
			<ellipse fill="none" stroke="#000000" stroke-linejoin="round" stroke-miterlimit="10" cx="12" cy="16.771" rx="3" ry="3.271"/>
			<path fill="none" stroke="#000000" stroke-linejoin="round" stroke-miterlimit="10" d="M14.953,16.17
				c-0.5,0.5-1.914,0.504-2.453-0.5c-1,1-2.625,1-3.434,0.43"/>
			
				<line fill="none" stroke="#000000" stroke-linecap="round" stroke-linejoin="round" stroke-miterlimit="10" x1="4" y1="12.5" x2="6.5" y2="15"/>
			
				<line fill="none" stroke="#000000" stroke-linecap="round" stroke-linejoin="round" stroke-miterlimit="10" x1="20" y1="12.5" x2="17.5" y2="15"/>
		</g>
	</g>
	<g id="New_icons_1_">
	</g>
</g>
<g id="Invisible_Shape">
	<rect fill="none" width="24" height="24"/>
</g>
</svg>
