<?xml version="1.0" encoding="utf-8"?>
<!-- Generator: Adobe Illustrator 16.0.3, SVG Export Plug-In . SVG Version: 6.00 Build 0)  -->
<!DOCTYPE svg PUBLIC "-//W3C//DTD SVG 1.1//EN" "http://www.w3.org/Graphics/SVG/1.1/DTD/svg11.dtd">
<svg version="1.1" xmlns="http://www.w3.org/2000/svg" xmlns:xlink="http://www.w3.org/1999/xlink" x="0px" y="0px" width="24px"
	 height="24px" viewBox="0 0 24 24" enable-background="new 0 0 24 24" xml:space="preserve">
<g id="Outline_Icons">
	<g>
		<path d="M23.5,23h-23C0.224,23,0,23.224,0,23.5S0.224,24,0.5,24h23c0.276,0,0.5-0.224,0.5-0.5S23.776,23,23.5,23z"/>
		<path d="M0.5,3h20C20.776,3,21,2.776,21,2.5S20.776,2,20.5,2h-20C0.224,2,0,2.224,0,2.5S0.224,3,0.5,3z"/>
		<path d="M0.5,6h16C16.776,6,17,5.776,17,5.5S16.776,5,16.5,5h-16C0.224,5,0,5.224,0,5.5S0.224,6,0.5,6z"/>
		<path d="M0.5,9h18C18.776,9,19,8.776,19,8.5S18.776,8,18.5,8h-18C0.224,8,0,8.224,0,8.5S0.224,9,0.5,9z"/>
		<path d="M0.5,12h23c0.276,0,0.5-0.224,0.5-0.5S23.776,11,23.5,11h-23C0.224,11,0,11.224,0,11.5S0.224,12,0.5,12z"/>
		<path d="M0.5,15h19c0.276,0,0.5-0.224,0.5-0.5S19.776,14,19.5,14h-19C0.224,14,0,14.224,0,14.5S0.224,15,0.5,15z"/>
		<path d="M0.5,18h16c0.276,0,0.5-0.224,0.5-0.5S16.776,17,16.5,17h-16C0.224,17,0,17.224,0,17.5S0.224,18,0.5,18z"/>
		<path d="M0.5,21h19c0.276,0,0.5-0.224,0.5-0.5S19.776,20,19.5,20h-19C0.224,20,0,20.224,0,20.5S0.224,21,0.5,21z"/>
	</g>
</g>
<g id="Invisible_Shape">
	<rect fill="none" width="24" height="24"/>
</g>
</svg>
