<?xml version="1.0" encoding="utf-8"?>
<!-- Generator: Adobe Illustrator 16.0.3, SVG Export Plug-In . SVG Version: 6.00 Build 0)  -->
<!DOCTYPE svg PUBLIC "-//W3C//DTD SVG 1.1//EN" "http://www.w3.org/Graphics/SVG/1.1/DTD/svg11.dtd">
<svg version="1.1" xmlns="http://www.w3.org/2000/svg" xmlns:xlink="http://www.w3.org/1999/xlink" x="0px" y="0px" width="24px"
	 height="24px" viewBox="0 0 24 24" enable-background="new 0 0 24 24" xml:space="preserve">
<g id="Outline_Icons">
	<g>
		<path d="M23.5,23h-23C0.224,23,0,23.224,0,23.5S0.224,24,0.5,24h23c0.276,0,0.5-0.224,0.5-0.5S23.776,23,23.5,23z"/>
		<path d="M4.5,3h19C23.776,3,24,2.776,24,2.5S23.776,2,23.5,2h-19C4.224,2,4,2.224,4,2.5S4.224,3,4.5,3z"/>
		<path d="M23.5,5h-16C7.224,5,7,5.224,7,5.5S7.224,6,7.5,6h16C23.776,6,24,5.776,24,5.5S23.776,5,23.5,5z"/>
		<path d="M23.5,8h-19C4.224,8,4,8.224,4,8.5S4.224,9,4.5,9h19C23.776,9,24,8.776,24,8.5S23.776,8,23.5,8z"/>
		<path d="M23.5,11h-23C0.224,11,0,11.224,0,11.5S0.224,12,0.5,12h23c0.276,0,0.5-0.224,0.5-0.5S23.776,11,23.5,11z"/>
		<path d="M23.5,14h-19C4.224,14,4,14.224,4,14.5S4.224,15,4.5,15h19c0.276,0,0.5-0.224,0.5-0.5S23.776,14,23.5,14z"/>
		<path d="M23.5,17h-16C7.224,17,7,17.224,7,17.5S7.224,18,7.5,18h16c0.276,0,0.5-0.224,0.5-0.5S23.776,17,23.5,17z"/>
		<path d="M23.5,20h-19C4.224,20,4,20.224,4,20.5S4.224,21,4.5,21h19c0.276,0,0.5-0.224,0.5-0.5S23.776,20,23.5,20z"/>
	</g>
</g>
<g id="Invisible_Shape">
	<rect fill="none" width="24" height="24"/>
</g>
</svg>
