<?xml version="1.0" encoding="utf-8"?>
<!-- Generator: Adobe Illustrator 16.0.3, SVG Export Plug-In . SVG Version: 6.00 Build 0)  -->
<!DOCTYPE svg PUBLIC "-//W3C//DTD SVG 1.1//EN" "http://www.w3.org/Graphics/SVG/1.1/DTD/svg11.dtd">
<svg version="1.1" xmlns="http://www.w3.org/2000/svg" xmlns:xlink="http://www.w3.org/1999/xlink" x="0px" y="0px" width="24px"
	 height="24px" viewBox="0 0 24 24" enable-background="new 0 0 24 24" xml:space="preserve">
<g id="Outline_Icons_1_">
	<g id="Outline_Icons">
		<g>
			<path d="M7.314,8.964l5,2C12.374,10.988,12.437,11,12.5,11s0.126-0.012,0.186-0.036l5-2C17.876,8.888,18,8.705,18,8.5V2
				c0-0.008-0.005-0.016-0.006-0.024c-0.003-0.059-0.018-0.114-0.039-0.167c-0.006-0.013-0.006-0.026-0.013-0.039
				c-0.032-0.063-0.078-0.118-0.136-0.163c-0.003-0.003-0.004-0.007-0.008-0.01c-0.016-0.011-0.035-0.013-0.051-0.021
				c-0.034-0.02-0.065-0.044-0.104-0.056l-5-1.5c-0.094-0.028-0.193-0.028-0.287,0l-5,1.5c-0.04,0.012-0.071,0.036-0.104,0.056
				c-0.017,0.009-0.035,0.01-0.051,0.021c-0.004,0.002-0.005,0.007-0.008,0.01c-0.057,0.044-0.104,0.1-0.136,0.163
				C7.051,1.783,7.051,1.797,7.045,1.81C7.023,1.862,7.009,1.917,7.006,1.976C7.005,1.984,7,1.992,7,2v6.5
				C7,8.705,7.124,8.888,7.314,8.964z M8,2.672l4,1.2v5.89l-4-1.6V2.672z M17,8.162l-4,1.6v-5.89l4-1.2V8.162z M12.5,1.022L15.76,2
				l-3.23,0.969c-0.011,0-0.019-0.006-0.029-0.006s-0.02,0.005-0.029,0.006L9.24,2L12.5,1.022z"/>
			<path d="M22.998,12.491c-0.001-0.074-0.02-0.146-0.052-0.211c-0.009-0.017-0.021-0.029-0.032-0.045
				c-0.029-0.045-0.063-0.087-0.107-0.122c-0.008-0.007-0.012-0.019-0.021-0.025c-0.014-0.01-0.031-0.01-0.046-0.018
				c-0.022-0.012-0.039-0.03-0.063-0.04l-4-1.5c-0.113-0.042-0.238-0.042-0.352,0l-4,1.5c-0.024,0.009-0.041,0.027-0.063,0.04
				c-0.015,0.008-0.032,0.008-0.046,0.018c-0.01,0.006-0.013,0.018-0.021,0.025c-0.044,0.035-0.078,0.076-0.107,0.122
				c-0.011,0.016-0.023,0.028-0.032,0.045c-0.032,0.065-0.05,0.137-0.052,0.211c0,0.003-0.002,0.006-0.002,0.009V17
				c0,0.19,0.107,0.362,0.276,0.447l4,2c0.07,0.035,0.147,0.053,0.224,0.053s0.153-0.018,0.224-0.053l4-2
				C22.893,17.362,23,17.19,23,17v-4.5C23,12.497,22.998,12.494,22.998,12.491z M18.5,11.535l2.575,0.965l-2.571,0.964
				c-0.001,0-0.002-0.001-0.004-0.001s-0.003,0.001-0.004,0.001L15.925,12.5L18.5,11.535z M15,13.222l3,1.125v3.844l-3-1.5V13.222z
				 M22,16.691l-3,1.5v-3.844l3-1.125V16.691z"/>
			<path d="M12.945,13.274c-0.002-0.006-0.008-0.009-0.011-0.014c-0.031-0.059-0.075-0.108-0.129-0.15
				c-0.006-0.004-0.008-0.012-0.014-0.016c-0.016-0.012-0.035-0.013-0.052-0.022c-0.027-0.016-0.051-0.037-0.082-0.047l-6-2
				c-0.104-0.034-0.213-0.034-0.316,0l-6,2c-0.031,0.01-0.055,0.031-0.082,0.047c-0.017,0.009-0.036,0.01-0.052,0.022
				C0.202,13.099,0.2,13.106,0.194,13.11c-0.054,0.042-0.098,0.092-0.129,0.15c-0.003,0.005-0.009,0.008-0.011,0.014
				c-0.033,0.064-0.048,0.135-0.051,0.209C0.004,13.489,0,13.494,0,13.5v8c0,0.215,0.138,0.407,0.342,0.474l6,2
				C6.394,23.991,6.446,24,6.5,24s0.106-0.009,0.158-0.026l6-2C12.862,21.907,13,21.715,13,21.5v-8c0-0.006-0.004-0.011-0.004-0.017
				C12.993,13.41,12.979,13.338,12.945,13.274z M6.5,12.027l4.42,1.473l-4.401,1.467c-0.007,0-0.012-0.003-0.019-0.003
				s-0.012,0.003-0.019,0.003l-4.4-1.467L6.5,12.027z M1,14.194l5,1.667v6.946L1,21.14V14.194z M12,21.14l-5,1.667V15.86l5-1.667
				V21.14z"/>
		</g>
	</g>
	<g id="New_icons_1_">
	</g>
</g>
<g id="Invisible_Shape">
	<rect fill="none" width="24" height="24"/>
</g>
</svg>
