<?xml version="1.0" encoding="utf-8"?>
<!-- Generator: Adobe Illustrator 16.0.3, SVG Export Plug-In . SVG Version: 6.00 Build 0)  -->
<!DOCTYPE svg PUBLIC "-//W3C//DTD SVG 1.1//EN" "http://www.w3.org/Graphics/SVG/1.1/DTD/svg11.dtd">
<svg version="1.1" xmlns="http://www.w3.org/2000/svg" xmlns:xlink="http://www.w3.org/1999/xlink" x="0px" y="0px" width="24px"
	 height="24px" viewBox="0 0 24 24" enable-background="new 0 0 24 24" xml:space="preserve">
<g id="Outline_Icons_1_">
	<g id="Outline_Icons">
		<g>
			<path d="M12,1C5.383,1,0,5.434,0,10.883c0,2.574,1.177,4.986,3.325,6.831l-2.41,4.812c-0.095,0.189-0.06,0.42,0.089,0.572
				c0.096,0.099,0.226,0.151,0.358,0.151c0.071,0,0.144-0.016,0.211-0.047l6.437-2.996c1.278,0.371,2.62,0.559,3.99,0.559
				c6.617,0,12-4.433,12-9.882S18.617,1,12,1z M12,19.765c-1.338,0-2.645-0.191-3.883-0.57c-0.118-0.036-0.245-0.027-0.357,0.025
				L2.452,21.69l1.946-3.884c0.105-0.211,0.049-0.467-0.135-0.614C2.159,15.51,1,13.27,1,10.883C1,5.984,5.935,2,12,2
				s11,3.984,11,8.883C23,15.78,18.065,19.765,12,19.765z"/>
			<path d="M12.5,14.5c-0.551,0-1,0.448-1,1s0.449,1,1,1s1-0.448,1-1S13.051,14.5,12.5,14.5z M12.5,15.5L12.5,15.5H13H12.5z"/>
			<path d="M12.5,5C10.57,5,9,6.57,9,8.5C9,8.776,9.224,9,9.5,9S10,8.776,10,8.5C10,7.121,11.122,6,12.5,6S15,7.121,15,8.5
				S13.878,11,12.5,11c-0.276,0-0.5,0.224-0.5,0.5V13c0,0.276,0.224,0.5,0.5,0.5S13,13.276,13,13v-1.035
				c1.694-0.244,3-1.705,3-3.465C16,6.57,14.43,5,12.5,5z"/>
		</g>
	</g>
	<g id="New_icons_1_">
	</g>
</g>
<g id="Invisible_Shape">
	<rect fill="none" width="24" height="24"/>
</g>
</svg>
