<?xml version="1.0" encoding="utf-8"?>
<!-- Generator: Adobe Illustrator 16.0.3, SVG Export Plug-In . SVG Version: 6.00 Build 0)  -->
<!DOCTYPE svg PUBLIC "-//W3C//DTD SVG 1.1//EN" "http://www.w3.org/Graphics/SVG/1.1/DTD/svg11.dtd">
<svg version="1.1" xmlns="http://www.w3.org/2000/svg" xmlns:xlink="http://www.w3.org/1999/xlink" x="0px" y="0px" width="24px"
	 height="24px" viewBox="0 0 24 24" enable-background="new 0 0 24 24" xml:space="preserve">
<g id="Outline_Icons_1_">
	<g id="Outline_Icons">
		<g>
			<path d="M14,14.5c0-0.276-0.224-0.5-0.5-0.5H8.498c-0.133,0-0.26,0.053-0.354,0.146L5,17.292V14.5C5,14.224,4.776,14,4.5,14H1V1
				h20v8c0,0.276,0.224,0.5,0.5,0.5S22,9.276,22,9V0.5C22,0.224,21.776,0,21.5,0h-21C0.224,0,0,0.224,0,0.5v14
				C0,14.776,0.224,15,0.5,15H4v3.5c0,0.202,0.122,0.385,0.309,0.462C4.371,18.987,4.436,19,4.5,19c0.13,0,0.258-0.051,0.354-0.146
				L8.705,15H13.5C13.776,15,14,14.776,14,14.5z"/>
			<path d="M23.854,14.646l-2.5-2.5c-0.195-0.195-0.512-0.195-0.707,0l-7.502,7.5c-0.057,0.057-0.092,0.125-0.116,0.196
				c-0.002,0.007-0.009,0.012-0.012,0.02l-1,3.5c-0.05,0.175-0.001,0.363,0.127,0.491C12.24,23.948,12.367,24,12.498,24
				c0.046,0,0.092-0.006,0.137-0.02l3.5-1c0.007-0.002,0.011-0.009,0.018-0.011c0.072-0.023,0.141-0.059,0.198-0.116l7.502-7.5
				C23.947,15.26,24,15.133,24,15S23.947,14.74,23.854,14.646z M15.998,21.793L14.205,20L19,15.207L20.793,17L15.998,21.793z
				 M13.746,20.954l1.298,1.299l-1.818,0.52L13.746,20.954z M21.5,16.293L19.707,14.5L21,13.207L22.793,15L21.5,16.293z"/>
		</g>
	</g>
	<g id="New_icons_1_">
	</g>
</g>
<g id="Invisible_Shape">
	<rect fill="none" width="24" height="24"/>
</g>
</svg>
