<?xml version="1.0" encoding="utf-8"?>
<!-- Generator: Adobe Illustrator 16.0.3, SVG Export Plug-In . SVG Version: 6.00 Build 0)  -->
<!DOCTYPE svg PUBLIC "-//W3C//DTD SVG 1.1//EN" "http://www.w3.org/Graphics/SVG/1.1/DTD/svg11.dtd">
<svg version="1.1" xmlns="http://www.w3.org/2000/svg" xmlns:xlink="http://www.w3.org/1999/xlink" x="0px" y="0px" width="24px"
	 height="24px" viewBox="0 0 24 24" enable-background="new 0 0 24 24" xml:space="preserve">
<g id="Outline_Icons_1_">
	<g id="Outline_Icons">
		<g>
			<path d="M23.5,2H20V0.5C20,0.224,19.776,0,19.5,0h-3C16.224,0,16,0.224,16,0.5V2H8V0.5C8,0.224,7.776,0,7.5,0h-3
				C4.224,0,4,0.224,4,0.5V2H0.5C0.224,2,0,2.224,0,2.5v21C0,23.776,0.224,24,0.5,24h23c0.276,0,0.5-0.224,0.5-0.5v-21
				C24,2.224,23.776,2,23.5,2z M17,1h2v3h-2V1z M5,1h2v3H5V1z M4,3v1.5C4,4.776,4.224,5,4.5,5h3C7.776,5,8,4.776,8,4.5V3h8v1.5
				C16,4.776,16.224,5,16.5,5h3C19.776,5,20,4.776,20,4.5V3h3v4H1V3H4z M1,23V8h22v15H1z"/>
			<path d="M11.5,19H10v-7.5c0-0.202-0.122-0.385-0.309-0.462c-0.187-0.078-0.402-0.035-0.545,0.108l-2,2
				c-0.195,0.195-0.195,0.512,0,0.707c0.195,0.195,0.512,0.195,0.707,0L9,12.707V19H7.5C7.224,19,7,19.224,7,19.5S7.224,20,7.5,20h4
				c0.276,0,0.5-0.224,0.5-0.5S11.776,19,11.5,19z"/>
			<path d="M17,11h-5c-0.276,0-0.5,0.224-0.5,0.5v1c0,0.276,0.224,0.5,0.5,0.5s0.5-0.224,0.5-0.5V12h3.778l-1.125,3H13.5
				c-0.276,0-0.5,0.224-0.5,0.5s0.224,0.5,0.5,0.5h1.278l-1.247,3.324c-0.097,0.259,0.034,0.547,0.292,0.645
				c0.262,0.097,0.548-0.037,0.644-0.292L15.847,16H16.5c0.276,0,0.5-0.224,0.5-0.5S16.776,15,16.5,15h-0.278l1.247-3.324
				c0.058-0.154,0.036-0.326-0.057-0.461C17.317,11.081,17.164,11,17,11z"/>
		</g>
	</g>
	<g id="New_icons_1_">
	</g>
</g>
<g id="Invisible_Shape">
	<rect fill="none" width="24" height="24"/>
</g>
</svg>
