<?xml version="1.0" encoding="utf-8"?>
<!-- Generator: Adobe Illustrator 19.2.1, SVG Export Plug-In . SVG Version: 6.00 Build 0)  -->
<svg version="1.1" xmlns="http://www.w3.org/2000/svg" xmlns:xlink="http://www.w3.org/1999/xlink" x="0px" y="0px" width="24px"
	 height="24px" viewBox="0 0 24 24" enable-background="new 0 0 24 24" xml:space="preserve">
<g id="Outline_Icons_1_">
	<g id="Outline_Icons">
	</g>
	<g id="New_icons_1_">
		<g>
			<path d="M6.647,4.647L4,7.293L2.853,6.147c-0.195-0.195-0.512-0.195-0.707,0c-0.195,0.195-0.195,0.512,0,0.707l1.5,1.5
				C3.744,8.451,3.872,8.5,4,8.5c0.128,0,0.256-0.049,0.353-0.146l3-3c0.195-0.195,0.195-0.512,0-0.707S6.842,4.451,6.647,4.647z"/>
			<path d="M6.647,10.146L4,12.793l-1.147-1.147c-0.195-0.195-0.512-0.195-0.707,0c-0.195,0.195-0.195,0.512,0,0.707l1.5,1.5
				C3.744,13.951,3.872,14,4,14c0.128,0,0.256-0.049,0.353-0.146l3-3c0.195-0.195,0.195-0.512,0-0.707S6.842,9.951,6.647,10.146z"/>
			<path d="M14.5,2h-14C0.224,2,0,2.224,0,2.5v19C0,21.776,0.224,22,0.5,22h9c0.067,0,0.132-0.014,0.192-0.039
				c0.061-0.025,0.116-0.062,0.162-0.108l4.999-4.999c0.046-0.046,0.083-0.101,0.108-0.162C14.986,16.632,15,16.567,15,16.5v-14
				C15,2.224,14.776,2,14.5,2z M1,3h13v13H9.5C9.224,16,9,16.224,9,16.5V21H1V3z M13.293,17L10,20.293V17H13.293z"/>
			<path d="M23.998,3.5c0-1.207-0.86-2.216-1.999-2.448V0.5c0-0.276-0.224-0.5-0.5-0.5H17.5C17.224,0,17,0.224,17,0.5l-0.002,8
				L16.999,19c0,0.276,0.224,0.5,0.5,0.5H18V21c0,0.276,0.224,0.5,0.5,0.5H19v2c0,0.276,0.224,0.5,0.5,0.5s0.5-0.224,0.5-0.5v-2h0.5
				c0.276,0,0.5-0.224,0.5-0.5v-1.5h0.5c0.133,0,0.26-0.053,0.354-0.146C21.947,19.26,22,19.133,22,19L21.999,2.093
				c0.58,0.207,0.999,0.756,0.999,1.407l0.002,8c0,0.276,0.224,0.5,0.5,0.5c0.276,0,0.5-0.224,0.5-0.5L23.998,3.5z M18,1h2.999v7
				h-3.001L18,1z M20,20.5h-1v-1h1V20.5z M17.999,18.5L17.998,9h3.001L21,18.5H17.999z"/>
			<path d="M8.5,8H12c0.276,0,0.5-0.224,0.5-0.5S12.276,7,12,7H8.5C8.224,7,8,7.224,8,7.5S8.224,8,8.5,8z"/>
			<path d="M12,13c0.276,0,0.5-0.224,0.5-0.5S12.276,12,12,12H8.5C8.224,12,8,12.224,8,12.5S8.224,13,8.5,13H12z"/>
		</g>
	</g>
</g>
<g id="Invisible_Shape">
	<rect fill="none" width="24" height="24"/>
</g>
</svg>
