<?xml version="1.0" encoding="utf-8"?>
<!-- Generator: Adobe Illustrator 16.0.3, SVG Export Plug-In . SVG Version: 6.00 Build 0)  -->
<!DOCTYPE svg PUBLIC "-//W3C//DTD SVG 1.1//EN" "http://www.w3.org/Graphics/SVG/1.1/DTD/svg11.dtd">
<svg version="1.1" xmlns="http://www.w3.org/2000/svg" xmlns:xlink="http://www.w3.org/1999/xlink" x="0px" y="0px" width="24px"
	 height="24px" viewBox="0 0 24 24" enable-background="new 0 0 24 24" xml:space="preserve">
<g id="Outline_Icons_1_">
	<g id="Outline_Icons">
		<g>
			<path d="M15,12h-3V7c0-0.276-0.224-0.5-0.5-0.5S11,6.724,11,7v5.5c0,0.276,0.224,0.5,0.5,0.5H15c0.276,0,0.5-0.224,0.5-0.5
				S15.276,12,15,12z"/>
			<path d="M19.5,0h-15C2.019,0,0,2.019,0,4.5v15C0,21.982,2.019,24,4.5,24h15c2.481,0,4.5-2.018,4.5-4.5v-15
				C24,2.019,21.981,0,19.5,0z M23,19.5c0,1.93-1.57,3.5-3.5,3.5h-15C2.57,23,1,21.43,1,19.5v-15C1,2.57,2.57,1,4.5,1h15
				C21.43,1,23,2.57,23,4.5V19.5z"/>
			<path d="M12,3c-4.962,0-9,4.038-9,9s4.038,9,9,9s9-4.038,9-9S16.962,3,12,3z M12,20c-4.411,0-8-3.589-8-8s3.589-8,8-8
				s8,3.589,8,8S16.411,20,12,20z"/>
		</g>
	</g>
	<g id="New_icons_1_">
	</g>
</g>
<g id="Invisible_Shape">
	<rect fill="none" width="24" height="24"/>
</g>
</svg>
