<?xml version="1.0" encoding="utf-8"?>
<!-- Generator: Adobe Illustrator 16.0.3, SVG Export Plug-In . SVG Version: 6.00 Build 0)  -->
<!DOCTYPE svg PUBLIC "-//W3C//DTD SVG 1.1//EN" "http://www.w3.org/Graphics/SVG/1.1/DTD/svg11.dtd">
<svg version="1.1" xmlns="http://www.w3.org/2000/svg" xmlns:xlink="http://www.w3.org/1999/xlink" x="0px" y="0px" width="24px"
	 height="24px" viewBox="0 0 24 24" enable-background="new 0 0 24 24" xml:space="preserve">
<g id="Outline_Icons_1_">
	<g id="Outline_Icons">
		<g>
			<path d="M8.5,12C6.57,12,5,13.57,5,15.5S6.57,19,8.5,19s3.5-1.57,3.5-3.5S10.43,12,8.5,12z M8.5,18C7.122,18,6,16.878,6,15.5
				S7.122,13,8.5,13s2.5,1.122,2.5,2.5S9.878,18,8.5,18z"/>
			<path d="M16.861,12.982l-2-3.464c-0.139-0.24-0.445-0.322-0.683-0.183l-1.269,0.732C12.336,9.603,11.696,9.235,11,8.969V7.5
				C11,7.224,10.776,7,10.5,7h-4C6.224,7,6,7.224,6,7.5v1.467c-0.699,0.266-1.34,0.634-1.913,1.1L2.821,9.335
				c-0.115-0.066-0.252-0.084-0.379-0.05C2.314,9.319,2.205,9.403,2.138,9.518l-2,3.464C0,13.221,0.082,13.527,0.321,13.665
				l1.271,0.735c-0.118,0.732-0.118,1.47,0,2.202l-1.271,0.734c-0.115,0.067-0.199,0.176-0.233,0.304
				c-0.034,0.127-0.017,0.264,0.05,0.379l2,3.464c0.138,0.239,0.444,0.321,0.683,0.183l1.268-0.731
				C4.663,21.398,5.303,21.766,6,22.032V23.5C6,23.776,6.224,24,6.5,24h4c0.276,0,0.5-0.224,0.5-0.5v-1.466
				c0.699-0.266,1.339-0.634,1.913-1.1l1.265,0.73c0.115,0.066,0.252,0.083,0.379,0.05c0.128-0.034,0.237-0.118,0.304-0.233l2-3.464
				c0.066-0.115,0.084-0.251,0.05-0.379c-0.034-0.128-0.118-0.237-0.233-0.304l-1.271-0.733c0.118-0.732,0.118-1.47,0-2.203
				l1.271-0.734C16.917,13.527,16.999,13.221,16.861,12.982z M14.601,13.71c-0.188,0.108-0.284,0.325-0.239,0.538
				c0.178,0.833,0.178,1.676,0,2.505c-0.045,0.212,0.051,0.43,0.239,0.538l1.145,0.66l-1.5,2.598l-1.139-0.658
				c-0.188-0.108-0.425-0.084-0.585,0.062c-0.625,0.565-1.357,0.986-2.174,1.25C10.14,21.27,10,21.462,10,21.679V23H7v-1.322
				c0-0.217-0.14-0.409-0.346-0.476c-0.816-0.265-1.547-0.685-2.174-1.25c-0.161-0.145-0.396-0.169-0.585-0.062l-1.141,0.659
				l-1.5-2.598l1.145-0.661c0.188-0.108,0.284-0.326,0.239-0.538c-0.178-0.832-0.178-1.674,0-2.504
				c0.045-0.212-0.051-0.43-0.239-0.538l-1.145-0.662l1.5-2.598l1.139,0.659c0.187,0.107,0.424,0.083,0.585-0.063
				c0.625-0.565,1.357-0.987,2.175-1.251C6.86,9.73,7,9.538,7,9.321V8h3v1.323c0,0.217,0.14,0.409,0.345,0.476
				c0.815,0.265,1.546,0.686,2.174,1.25c0.161,0.146,0.397,0.169,0.584,0.062l1.141-0.659l1.5,2.598L14.601,13.71z"/>
			<path d="M19,3c-1.103,0-2,0.897-2,2c0,1.103,0.897,2,2,2s2-0.897,2-2C21,3.897,20.103,3,19,3z M19,6c-0.551,0-1-0.449-1-1
				s0.449-1,1-1s1,0.449,1,1S19.551,6,19,6z"/>
			<path d="M23.646,5.951l-0.695-0.402C23.001,5.186,23,4.82,22.947,4.453l0.7-0.404c0.239-0.138,0.321-0.444,0.183-0.683l-1-1.732
				c-0.066-0.115-0.176-0.199-0.304-0.233c-0.127-0.034-0.265-0.016-0.379,0.05l-0.7,0.404c-0.292-0.23-0.609-0.415-0.947-0.553V0.5
				C20.5,0.224,20.276,0,20,0h-2c-0.276,0-0.5,0.224-0.5,0.5v0.803c-0.339,0.139-0.66,0.324-0.95,0.549l-0.696-0.401
				c-0.115-0.066-0.252-0.084-0.379-0.05c-0.128,0.034-0.237,0.118-0.304,0.233l-1,1.732c-0.066,0.115-0.084,0.251-0.05,0.379
				c0.034,0.127,0.118,0.237,0.233,0.304l0.694,0.4c-0.05,0.363-0.049,0.73,0.004,1.098l-0.698,0.403
				c-0.239,0.138-0.321,0.443-0.183,0.683l1,1.732c0.066,0.115,0.176,0.199,0.304,0.233c0.127,0.034,0.264,0.016,0.379-0.05
				l0.698-0.403c0.293,0.231,0.61,0.417,0.949,0.555v0.8c0,0.276,0.224,0.5,0.5,0.5h2c0.276,0,0.5-0.224,0.5-0.5V8.697
				c0.339-0.139,0.66-0.325,0.951-0.55l0.696,0.402c0.115,0.066,0.252,0.083,0.379,0.05c0.128-0.034,0.237-0.118,0.304-0.233
				l1-1.732C23.968,6.394,23.886,6.088,23.646,5.951z M21.909,5.69c-0.05,0.215,0.045,0.438,0.237,0.548l0.568,0.328l-0.5,0.867
				l-0.569-0.329c-0.191-0.11-0.432-0.083-0.593,0.069c-0.345,0.324-0.747,0.558-1.195,0.692C19.645,7.929,19.5,8.124,19.5,8.344V9
				h-1V8.347c0-0.221-0.145-0.416-0.357-0.479c-0.44-0.131-0.841-0.366-1.191-0.696c-0.161-0.152-0.403-0.179-0.593-0.069
				l-0.572,0.331l-0.5-0.867l0.572-0.33c0.191-0.111,0.288-0.334,0.236-0.549c-0.11-0.464-0.112-0.928-0.005-1.378
				c0.051-0.216-0.045-0.439-0.236-0.549l-0.567-0.327l0.5-0.867l0.569,0.329c0.191,0.11,0.432,0.083,0.593-0.069
				c0.344-0.324,0.746-0.556,1.195-0.69C18.355,2.072,18.5,1.877,18.5,1.656V1h1v0.655c0,0.221,0.145,0.416,0.356,0.479
				c0.441,0.132,0.842,0.366,1.19,0.695c0.161,0.151,0.402,0.179,0.593,0.069l0.574-0.332l0.5,0.867L22.14,3.764
				c-0.191,0.111-0.288,0.334-0.236,0.549C22.014,4.776,22.015,5.24,21.909,5.69z"/>
		</g>
	</g>
	<g id="New_icons_1_">
	</g>
</g>
<g id="Invisible_Shape">
	<rect fill="none" width="24" height="24"/>
</g>
</svg>
