<?xml version="1.0" encoding="utf-8"?>
<!-- Generator: Adobe Illustrator 16.0.3, SVG Export Plug-In . SVG Version: 6.00 Build 0)  -->
<!DOCTYPE svg PUBLIC "-//W3C//DTD SVG 1.1//EN" "http://www.w3.org/Graphics/SVG/1.1/DTD/svg11.dtd">
<svg version="1.1" xmlns="http://www.w3.org/2000/svg" xmlns:xlink="http://www.w3.org/1999/xlink" x="0px" y="0px" width="24px"
	 height="24px" viewBox="0 0 24 24" enable-background="new 0 0 24 24" xml:space="preserve">
<g id="Outline_Icons_1_">
	<g id="Outline_Icons">
		<g>
			<path d="M23.855,12.645l-2.5-2.5c-0.195-0.195-0.512-0.195-0.707,0l-7.502,7.502c-0.056,0.056-0.108,0.152-0.127,0.216l-1,3.5
				c-0.05,0.174-0.001,0.363,0.127,0.491C12.242,21.949,12.369,22,12.5,22c0.046,0,0.092-0.006,0.137-0.02l3.5-1
				c0.063-0.019,0.16-0.071,0.216-0.127l7.502-7.502C24.051,13.156,24.051,12.84,23.855,12.645z M16,19.793L14.207,18l4.795-4.795
				l1.793,1.793L16,19.793z M13.747,18.955l1.299,1.298l-1.818,0.519L13.747,18.955z M21.502,14.291l-1.793-1.793l1.293-1.293
				l1.793,1.793L21.502,14.291z"/>
			<path d="M11,15H2c-0.55,0-0.998-0.449-0.998-1V3c0-0.109,0.03-0.209,0.062-0.308l9.623,7.698C10.779,10.463,10.89,10.5,11,10.5
				s0.221-0.037,0.312-0.109l9.626-7.701c0.033,0.1,0.063,0.201,0.063,0.311v5.5c0,0.276,0.224,0.5,0.5,0.5s0.5-0.224,0.5-0.5V3
				c0-1.104-0.898-2-2.002-2H2C0.898,1,0.002,1.896,0.002,3v11c0,1.103,0.896,2,1.998,2h9c0.276,0,0.5-0.224,0.5-0.5
				S11.276,15,11,15z M20,2c0.057,0,0.105,0.023,0.159,0.032L11,9.36L1.841,2.032C1.895,2.023,1.943,2,2,2H20z"/>
		</g>
	</g>
	<g id="New_icons_1_">
	</g>
</g>
<g id="Invisible_Shape">
	<rect fill="none" width="24" height="24"/>
</g>
</svg>
