<?xml version="1.0" encoding="utf-8"?>
<!-- Generator: Adobe Illustrator 16.0.3, SVG Export Plug-In . SVG Version: 6.00 Build 0)  -->
<!DOCTYPE svg PUBLIC "-//W3C//DTD SVG 1.1//EN" "http://www.w3.org/Graphics/SVG/1.1/DTD/svg11.dtd">
<svg version="1.1" xmlns="http://www.w3.org/2000/svg" xmlns:xlink="http://www.w3.org/1999/xlink" x="0px" y="0px" width="24px"
	 height="24px" viewBox="0 0 24 24" enable-background="new 0 0 24 24" xml:space="preserve">
<g id="Outline_Icons_1_">
	<g id="Outline_Icons">
		<g>
			<path d="M23.947,21.276l-6-12c-0.17-0.339-0.725-0.339-0.895,0l-6,12c-0.078,0.155-0.069,0.339,0.022,0.486S11.327,22,11.5,22h12
				c0.173,0,0.334-0.09,0.425-0.237S24.025,21.432,23.947,21.276z M12.309,21L17.5,10.618L22.691,21H12.309z"/>
			<path d="M17,14.5V18c0,0.276,0.224,0.5,0.5,0.5S18,18.276,18,18v-3.5c0-0.276-0.224-0.5-0.5-0.5S17,14.224,17,14.5z"/>
			<circle cx="17.5" cy="19.5" r="0.5"/>
			<path d="M20.938,2.691C20.97,2.79,21,2.891,21,3v5.5C21,8.776,21.224,9,21.5,9S22,8.776,22,8.5V3c0-1.104-0.897-2-2-2H2
				C0.897,1,0,1.896,0,3v11c0,1.103,0.897,2,2,2h8c0.276,0,0.5-0.224,0.5-0.5S10.276,15,10,15H2c-0.551,0-1-0.449-1-1V3
				c0-0.109,0.03-0.21,0.062-0.309l9.625,7.7C10.779,10.463,10.89,10.5,11,10.5s0.221-0.037,0.312-0.109L20.938,2.691z M1.841,2.032
				C1.895,2.023,1.943,2,2,2h18c0.057,0,0.105,0.023,0.159,0.032L11,9.36L1.841,2.032z"/>
		</g>
	</g>
	<g id="New_icons_1_">
	</g>
</g>
<g id="Invisible_Shape">
	<rect fill="none" width="24" height="24"/>
</g>
</svg>
