<?xml version="1.0" encoding="utf-8"?>
<!-- Generator: Adobe Illustrator 16.0.3, SVG Export Plug-In . SVG Version: 6.00 Build 0)  -->
<!DOCTYPE svg PUBLIC "-//W3C//DTD SVG 1.1//EN" "http://www.w3.org/Graphics/SVG/1.1/DTD/svg11.dtd">
<svg version="1.1" xmlns="http://www.w3.org/2000/svg" xmlns:xlink="http://www.w3.org/1999/xlink" x="0px" y="0px" width="24px"
	 height="24px" viewBox="0 0 24 24" enable-background="new 0 0 24 24" xml:space="preserve">
<g id="Outline_Icons_1_">
	<g id="Outline_Icons">
		<g>
			<path d="M23.758,7.621C23.491,7.226,23.027,7,22.484,7h-12C9.454,7,8.327,7.797,7.919,8.814l-2.8,6.999
				c-0.229,0.573-0.196,1.143,0.09,1.566C5.477,17.774,5.941,18,6.484,18h12c1.03,0,2.157-0.797,2.564-1.814l0,0l2.8-7
				C24.077,8.614,24.044,8.043,23.758,7.621z M22.919,8.814l-2.8,7C19.867,16.446,19.103,17,18.484,17h-12
				c-0.148,0-0.345-0.031-0.447-0.181c-0.097-0.144-0.093-0.374,0.011-0.633l2.8-7C9.105,8.543,9.854,8,10.484,8h12
				c0.147,0,0.344,0.031,0.446,0.181C23.027,8.324,23.023,8.555,22.919,8.814z"/>
			<path d="M20.938,9.064l-6.765,3.812l-3.632-3.725c-0.193-0.198-0.509-0.201-0.707-0.009C9.637,9.335,9.633,9.651,9.826,9.85
				l3.9,4c0.159,0.163,0.407,0.197,0.604,0.086l7.1-4c0.24-0.135,0.326-0.44,0.19-0.681C21.484,9.015,21.179,8.928,20.938,9.064z"/>
			<path d="M10.793,13.093l-3.5,2.5c-0.225,0.161-0.277,0.473-0.116,0.697c0.161,0.225,0.474,0.276,0.697,0.117l3.5-2.5
				c0.225-0.161,0.277-0.473,0.116-0.697C11.33,12.985,11.018,12.932,10.793,13.093z"/>
			<path d="M17.513,13.243c-0.142-0.236-0.449-0.314-0.686-0.172c-0.237,0.143-0.313,0.449-0.171,0.686l1.5,2.5
				c0.143,0.237,0.45,0.313,0.686,0.171c0.237-0.143,0.313-0.449,0.171-0.686L17.513,13.243z"/>
			<path d="M0.5,8h5C5.776,8,6,7.776,6,7.5S5.776,7,5.5,7h-5C0.224,7,0,7.224,0,7.5S0.224,8,0.5,8z"/>
			<path d="M2.5,16h-2C0.224,16,0,16.224,0,16.5S0.224,17,0.5,17h2C2.776,17,3,16.776,3,16.5S2.776,16,2.5,16z"/>
			<path d="M3.5,11h-3C0.224,11,0,11.224,0,11.5S0.224,12,0.5,12h3C3.776,12,4,11.776,4,11.5S3.776,11,3.5,11z"/>
		</g>
	</g>
	<g id="New_icons_1_">
	</g>
</g>
<g id="Invisible_Shape">
	<rect fill="none" width="24" height="24"/>
</g>
</svg>
