<?xml version="1.0" encoding="utf-8"?>
<!-- Generator: Adobe Illustrator 16.0.3, SVG Export Plug-In . SVG Version: 6.00 Build 0)  -->
<!DOCTYPE svg PUBLIC "-//W3C//DTD SVG 1.1//EN" "http://www.w3.org/Graphics/SVG/1.1/DTD/svg11.dtd">
<svg version="1.1" xmlns="http://www.w3.org/2000/svg" xmlns:xlink="http://www.w3.org/1999/xlink" x="0px" y="0px" width="24px"
	 height="24px" viewBox="0 0 24 24" enable-background="new 0 0 24 24" xml:space="preserve">
<g id="Outline_Icons_1_">
	<g>
		<path d="M23.5,14h-23C0.224,14,0,14.224,0,14.5S0.224,15,0.5,15H11v7.293l-2.146-2.146c-0.195-0.195-0.512-0.195-0.707,0
			s-0.195,0.512,0,0.707l3,3c0.195,0.195,0.512,0.195,0.707,0l3-3c0.195-0.195,0.195-0.512,0-0.707s-0.512-0.195-0.707,0L12,22.293
			V15h11.5c0.276,0,0.5-0.224,0.5-0.5S23.776,14,23.5,14z"/>
		<path d="M0.5,11h23c0.276,0,0.5-0.224,0.5-0.5S23.776,10,23.5,10H12V1.707l2.146,2.146c0.195,0.195,0.512,0.195,0.707,0
			s0.195-0.512,0-0.707l-3-3c-0.195-0.195-0.512-0.195-0.707,0l-3,3c-0.195,0.195-0.195,0.512,0,0.707s0.512,0.195,0.707,0L11,1.707
			V10H0.5C0.224,10,0,10.224,0,10.5S0.224,11,0.5,11z"/>
	</g>
</g>
<g id="Invisible_Shape">
	<rect fill="none" width="24" height="24"/>
</g>
</svg>
