<?xml version="1.0" encoding="utf-8"?>
<!-- Generator: Adobe Illustrator 16.0.3, SVG Export Plug-In . SVG Version: 6.00 Build 0)  -->
<!DOCTYPE svg PUBLIC "-//W3C//DTD SVG 1.1//EN" "http://www.w3.org/Graphics/SVG/1.1/DTD/svg11.dtd">
<svg version="1.1" xmlns="http://www.w3.org/2000/svg" xmlns:xlink="http://www.w3.org/1999/xlink" x="0px" y="0px" width="24px"
	 height="24px" viewBox="0 0 24 24" enable-background="new 0 0 24 24" xml:space="preserve">
<g id="Outline_Icons">
	<g>
		<path d="M21.961,6.308c-0.025-0.062-0.062-0.116-0.108-0.161l-5.999-6c-0.046-0.045-0.101-0.082-0.162-0.107
			C15.632,0.014,15.567,0,15.5,0h-13C2.224,0,2,0.224,2,0.5v23C2,23.776,2.224,24,2.5,24h19c0.276,0,0.5-0.224,0.5-0.5v-17
			C22,6.434,21.986,6.368,21.961,6.308z M16,1.707L20.293,6H16V1.707z M3,23V1h12v5.5C15,6.776,15.224,7,15.5,7H21v16H3z"/>
		<path d="M14,18h-2v-4.5c0-0.276-0.224-0.5-0.5-0.5S11,13.224,11,13.5v5c0,0.276,0.224,0.5,0.5,0.5H14c0.276,0,0.5-0.224,0.5-0.5
			S14.276,18,14,18z"/>
		<path d="M17.642,15.521c-0.04-0.012-0.099-0.024-0.171-0.038c-0.482-0.09-0.712-0.212-0.712-0.658C16.758,14.37,17.091,14,17.5,14
			c0.389,0,0.713,0.338,0.739,0.77c0.016,0.275,0.245,0.5,0.529,0.47c0.275-0.017,0.486-0.253,0.469-0.528
			C19.181,13.751,18.417,13,17.5,13c-0.96,0-1.742,0.818-1.742,1.824c0,0.899,0.514,1.452,1.604,1.658
			c0.039,0.01,0.094,0.021,0.164,0.033c0.484,0.088,0.714,0.209,0.714,0.657c0,0.456-0.332,0.827-0.74,0.827
			c-0.39,0-0.715-0.339-0.741-0.771c-0.016-0.275-0.25-0.503-0.528-0.47c-0.276,0.017-0.486,0.253-0.47,0.528
			C15.817,18.248,16.582,19,17.5,19c0.959,0,1.74-0.818,1.74-1.827C19.24,16.27,18.724,15.717,17.642,15.521z"/>
		<path d="M8.757,13.071c-0.236-0.144-0.544-0.064-0.686,0.172L7,15.029l-1.071-1.786c-0.142-0.236-0.448-0.315-0.686-0.172
			c-0.237,0.142-0.313,0.449-0.171,0.686L6.417,16l-1.346,2.243c-0.142,0.236-0.065,0.544,0.171,0.686C5.323,18.978,5.412,19,5.5,19
			c0.17,0,0.335-0.087,0.429-0.243L7,16.971l1.071,1.786C8.165,18.913,8.331,19,8.5,19c0.087,0,0.176-0.022,0.257-0.071
			c0.237-0.142,0.313-0.449,0.171-0.686L7.583,16l1.346-2.243C9.071,13.521,8.994,13.213,8.757,13.071z"/>
	</g>
</g>
<g id="Invisible_Shape">
	<rect fill="none" width="24" height="24"/>
</g>
</svg>
