<?xml version="1.0" encoding="utf-8"?>
<!-- Generator: Adobe Illustrator 16.0.3, SVG Export Plug-In . SVG Version: 6.00 Build 0)  -->
<!DOCTYPE svg PUBLIC "-//W3C//DTD SVG 1.1//EN" "http://www.w3.org/Graphics/SVG/1.1/DTD/svg11.dtd">
<svg version="1.1" xmlns="http://www.w3.org/2000/svg" xmlns:xlink="http://www.w3.org/1999/xlink" x="0px" y="0px" width="24px"
	 height="24px" viewBox="0 0 24 24" enable-background="new 0 0 24 24" xml:space="preserve">
<g id="Outline_Icons">
	<g>
		<path d="M21.961,6.308c-0.025-0.062-0.062-0.116-0.108-0.161l-5.999-6c-0.046-0.045-0.101-0.082-0.162-0.107
			C15.632,0.014,15.567,0,15.5,0h-13C2.224,0,2,0.224,2,0.5v23C2,23.776,2.224,24,2.5,24h19c0.276,0,0.5-0.224,0.5-0.5v-17
			C22,6.434,21.986,6.368,21.961,6.308z M16,1.707L20.293,6H16V1.707z M3,23V1h12v5.5C15,6.776,15.224,7,15.5,7H21v16H3z"/>
		<path d="M16.91,13.999c0.303,0,0.64,0.065,0.808,0.845c0.058,0.27,0.32,0.437,0.594,0.384c0.27-0.059,0.441-0.324,0.383-0.595
			c-0.291-1.35-1.132-1.634-1.786-1.634C15,12.999,15,15.026,15,16s0,3,1.91,3c0.654,0,1.495-0.283,1.786-1.635
			c0.058-0.271-0.114-0.537-0.384-0.596c-0.27-0.052-0.536,0.115-0.594,0.384C17.55,17.935,17.213,18,16.91,18
			C16.395,18,16,17.853,16,16C16,14.146,16.395,13.999,16.91,13.999z"/>
		<path d="M12,13c-2,0-2,2.103-2,3c0,0.898,0,3,2,3s2-2.102,2-3C14,15.103,14,13,12,13z M12,18c-0.547,0-1-0.15-1-2s0.453-2,1-2
			s1,0.15,1,2S12.547,18,12,18z"/>
		<path d="M6.5,13h-1C5.224,13,5,13.224,5,13.5v5C5,18.776,5.224,19,5.5,19h1C7.925,19,9,17.71,9,16S7.925,13,6.5,13z M6.5,18H6v-4
			h0.5C7.369,14,8,14.841,8,16S7.369,18,6.5,18z"/>
	</g>
</g>
<g id="Invisible_Shape">
	<rect fill="none" width="24" height="24"/>
</g>
</svg>
