<?xml version="1.0" encoding="utf-8"?>
<!-- Generator: Adobe Illustrator 16.0.3, SVG Export Plug-In . SVG Version: 6.00 Build 0)  -->
<!DOCTYPE svg PUBLIC "-//W3C//DTD SVG 1.1//EN" "http://www.w3.org/Graphics/SVG/1.1/DTD/svg11.dtd">
<svg version="1.1" xmlns="http://www.w3.org/2000/svg" xmlns:xlink="http://www.w3.org/1999/xlink" x="0px" y="0px" width="24px"
	 height="24px" viewBox="0 0 24 24" enable-background="new 0 0 24 24" xml:space="preserve">
<g id="Outline_Icons">
	<path d="M20.961,6.308c-0.025-0.061-0.062-0.116-0.108-0.162l-4.999-4.999c-0.046-0.045-0.101-0.083-0.162-0.107
		C15.632,1.014,15.567,1,15.5,1h-8C7.224,1,7,1.224,7,1.5V3H5.5C5.224,3,5,3.224,5,3.5V5H3.5C3.224,5,3,5.224,3,5.5v17
		C3,22.776,3.224,23,3.5,23h13c0.276,0,0.5-0.224,0.5-0.5V21h1.5c0.276,0,0.5-0.224,0.5-0.5V19h1.5c0.276,0,0.5-0.224,0.5-0.5v-12
		C21,6.433,20.986,6.368,20.961,6.308z M16,2.707L19.293,6H16V2.707z M16,22H4V6h1v14.5C5,20.776,5.224,21,5.5,21H16V22z M18,20H6V4
		h1v14.5C7,18.776,7.224,19,7.5,19H18V20z M8,18V2h7v4.5C15,6.776,15.224,7,15.5,7H20v11H8z"/>
</g>
<g id="Invisible_Shape">
	<rect fill="none" width="24" height="24"/>
</g>
</svg>
