<?xml version="1.0" encoding="utf-8"?>
<!-- Generator: Adobe Illustrator 16.0.3, SVG Export Plug-In . SVG Version: 6.00 Build 0)  -->
<!DOCTYPE svg PUBLIC "-//W3C//DTD SVG 1.1//EN" "http://www.w3.org/Graphics/SVG/1.1/DTD/svg11.dtd">
<svg version="1.1" xmlns="http://www.w3.org/2000/svg" xmlns:xlink="http://www.w3.org/1999/xlink" x="0px" y="0px" width="24px"
	 height="24px" viewBox="0 0 24 24" enable-background="new 0 0 24 24" xml:space="preserve">
<g id="Outline_Icons">
	<g>
		<path d="M12.691,8.538c-0.185-0.077-0.402-0.035-0.545,0.108L8.793,12H7.25C6.561,12,6,12.561,6,13.25v1.5
			C6,15.44,6.561,16,7.25,16h1.543l3.354,3.354C12.242,19.449,12.37,19.5,12.5,19.5c0.064,0,0.13-0.012,0.191-0.038
			C12.878,19.385,13,19.202,13,19V9C13,8.798,12.878,8.615,12.691,8.538z M12,17.793l-2.646-2.646C9.26,15.053,9.133,15,9,15H7.25
			C7.112,15,7,14.888,7,14.75v-1.5C7,13.112,7.112,13,7.25,13H9c0.133,0,0.26-0.053,0.354-0.146L12,10.207V17.793z"/>
		<path d="M16.318,10.615c-0.211-0.175-0.528-0.146-0.704,0.067s-0.146,0.528,0.067,0.704C16.482,12.047,17,13.073,17,14
			c0,0.926-0.518,1.952-1.318,2.615c-0.213,0.176-0.243,0.491-0.067,0.704c0.1,0.12,0.242,0.181,0.386,0.181
			c0.112,0,0.226-0.038,0.318-0.115C17.34,16.541,18,15.211,18,14C18,12.768,17.355,11.471,16.318,10.615z"/>
		<path d="M14.294,11.846c-0.223-0.16-0.535-0.113-0.698,0.11c-0.162,0.223-0.113,0.536,0.11,0.698
			C14.068,12.918,14.5,13.365,14.5,14s-0.432,1.082-0.794,1.346c-0.224,0.163-0.272,0.475-0.11,0.698
			c0.098,0.135,0.25,0.206,0.404,0.206c0.103,0,0.205-0.031,0.294-0.096C15.071,15.589,15.5,14.824,15.5,14
			C15.5,13.177,15.071,12.411,14.294,11.846z"/>
		<path d="M21.961,6.308c-0.025-0.061-0.062-0.116-0.108-0.162l-5.998-5.999c-0.046-0.045-0.101-0.083-0.162-0.107
			C15.632,0.014,15.566,0,15.5,0h-13C2.224,0,2,0.224,2,0.5v23C2,23.776,2.224,24,2.5,24h19c0.276,0,0.5-0.224,0.5-0.5v-17
			C22,6.433,21.986,6.368,21.961,6.308z M16,1.707L20.293,6H16V1.707z M3,23V1h12v5.5C15,6.776,15.224,7,15.5,7H21v16H3z"/>
	</g>
</g>
<g id="Invisible_Shape">
	<rect fill="none" width="24" height="24"/>
</g>
</svg>
