<?xml version="1.0" encoding="utf-8"?>
<!-- Generator: Adobe Illustrator 16.0.3, SVG Export Plug-In . SVG Version: 6.00 Build 0)  -->
<!DOCTYPE svg PUBLIC "-//W3C//DTD SVG 1.1//EN" "http://www.w3.org/Graphics/SVG/1.1/DTD/svg11.dtd">
<svg version="1.1" xmlns="http://www.w3.org/2000/svg" xmlns:xlink="http://www.w3.org/1999/xlink" x="0px" y="0px" width="24px"
	 height="24px" viewBox="0 0 24 24" enable-background="new 0 0 24 24" xml:space="preserve">
<g id="Outline_Icons">
	<g>
		<path d="M14,18h-2v-4.5c0-0.276-0.224-0.5-0.5-0.5S11,13.224,11,13.5v5c0,0.276,0.224,0.5,0.5,0.5H14c0.276,0,0.5-0.224,0.5-0.5
			S14.276,18,14,18z"/>
		<path d="M8.5,13h-2C6.224,13,6,13.224,6,13.5v5C6,18.776,6.224,19,6.5,19S7,18.776,7,18.5V16h1c0.276,0,0.5-0.224,0.5-0.5
			S8.276,15,8,15H7v-1h1.5C8.776,14,9,13.776,9,13.5S8.776,13,8.5,13z"/>
		<path d="M18.144,13.021c-0.263-0.078-0.543,0.071-0.622,0.335L16.5,16.76l-1.021-3.404c-0.079-0.264-0.359-0.414-0.622-0.335
			c-0.265,0.08-0.415,0.358-0.335,0.623l1.5,5C16.085,18.855,16.279,19,16.5,19s0.415-0.145,0.479-0.356l1.5-5
			C18.559,13.379,18.408,13.101,18.144,13.021z"/>
		<path d="M21.961,6.308c-0.025-0.061-0.062-0.116-0.108-0.162l-5.998-5.999c-0.046-0.046-0.101-0.083-0.162-0.107
			C15.632,0.014,15.566,0,15.5,0h-13C2.224,0,2,0.224,2,0.5v23C2,23.776,2.224,24,2.5,24h19c0.276,0,0.5-0.224,0.5-0.5v-17
			C22,6.433,21.986,6.368,21.961,6.308z M16,1.707L20.293,6H16V1.707z M3,23V1h12v5.5C15,6.776,15.224,7,15.5,7H21v16H3z"/>
	</g>
</g>
<g id="Invisible_Shape">
	<rect fill="none" width="24" height="24"/>
</g>
</svg>
