<?xml version="1.0" encoding="utf-8"?>
<!-- Generator: Adobe Illustrator 16.0.3, SVG Export Plug-In . SVG Version: 6.00 Build 0)  -->
<!DOCTYPE svg PUBLIC "-//W3C//DTD SVG 1.1//EN" "http://www.w3.org/Graphics/SVG/1.1/DTD/svg11.dtd">
<svg version="1.1" xmlns="http://www.w3.org/2000/svg" xmlns:xlink="http://www.w3.org/1999/xlink" x="0px" y="0px" width="24px"
	 height="24px" viewBox="0 0 24 24" enable-background="new 0 0 24 24" xml:space="preserve">
<g id="Outline_Icons">
	<g>
		<path d="M12.5,13c-0.276,0-0.5,0.224-0.5,0.5v5c0,0.276,0.224,0.5,0.5,0.5s0.5-0.224,0.5-0.5v-5C13,13.224,12.776,13,12.5,13z"/>
		<path d="M16.75,13H15.5c-0.276,0-0.5,0.224-0.5,0.5v4.999c0,0.276,0.224,0.5,0.5,0.5s0.5-0.224,0.5-0.5V16.5h0.75
			c0.965,0,1.75-0.785,1.75-1.75S17.715,13,16.75,13z M16.75,15.5H16V14h0.75c0.414,0,0.75,0.337,0.75,0.75S17.164,15.5,16.75,15.5z
			"/>
		<path d="M9.5,18H7.809l2.138-4.276c0.078-0.155,0.069-0.339-0.022-0.486S9.673,13,9.5,13H7c-0.276,0-0.5,0.224-0.5,0.5
			S6.724,14,7,14h1.691l-2.138,4.276c-0.078,0.155-0.069,0.339,0.022,0.486S6.827,19,7,19h2.5c0.276,0,0.5-0.224,0.5-0.5
			S9.776,18,9.5,18z"/>
		<path d="M21.961,6.307c-0.025-0.061-0.062-0.115-0.108-0.162l-5.999-5.999c-0.046-0.046-0.101-0.082-0.162-0.108
			c-0.061-0.024-0.125-0.038-0.192-0.038h-13c-0.276,0-0.5,0.224-0.5,0.5v23c0,0.276,0.224,0.5,0.5,0.5h19
			c0.276,0,0.5-0.224,0.5-0.5v-17C22,6.432,21.986,6.367,21.961,6.307z M16,1.706l4.293,4.293H16V1.706z M3,22.999v-22h12v5.5
			c0,0.276,0.224,0.5,0.5,0.5H21v16H3z"/>
	</g>
</g>
<g id="Invisible_Shape">
	<rect fill="none" width="24" height="24"/>
</g>
</svg>
