<?xml version="1.0" encoding="utf-8"?>
<!-- Generator: Adobe Illustrator 16.0.3, SVG Export Plug-In . SVG Version: 6.00 Build 0)  -->
<!DOCTYPE svg PUBLIC "-//W3C//DTD SVG 1.1//EN" "http://www.w3.org/Graphics/SVG/1.1/DTD/svg11.dtd">
<svg version="1.1" xmlns="http://www.w3.org/2000/svg" xmlns:xlink="http://www.w3.org/1999/xlink" x="0px" y="0px" width="24px"
	 height="24px" viewBox="0 0 24 24" enable-background="new 0 0 24 24" xml:space="preserve">
<g id="Outline_Icons">
	<g>
		<path d="M20.961,6.308c-0.025-0.062-0.062-0.116-0.108-0.161l-5.999-6c-0.046-0.045-0.101-0.082-0.162-0.107
			C14.632,0.014,14.567,0,14.5,0h-11C3.224,0,3,0.224,3,0.5v23C3,23.776,3.224,24,3.5,24h17c0.276,0,0.5-0.224,0.5-0.5v-17
			C21,6.434,20.986,6.368,20.961,6.308z M15,1.707L19.293,6H15V1.707z M4,23V1h10v5.5C14,6.776,14.224,7,14.5,7H20v16H4z"/>
		<path d="M17.5,8h-11C6.224,8,6,8.224,6,8.5v12C6,20.776,6.224,21,6.5,21h11c0.276,0,0.5-0.224,0.5-0.5v-12
			C18,8.224,17.776,8,17.5,8z M10,14H7v-2h3V14z M11,12h6v2h-6V12z M7,15h3v2H7V15z M11,15h6v2h-6V15z M17,11h-6V9h6V11z M10,9v2H7
			V9H10z M7,18h3v2H7V18z M11,20v-2h6v2H11z"/>
	</g>
</g>
<g id="Invisible_Shape">
	<rect fill="none" width="24" height="24"/>
</g>
</svg>
