<?xml version="1.0" encoding="utf-8"?>
<!-- Generator: Adobe Illustrator 16.0.3, SVG Export Plug-In . SVG Version: 6.00 Build 0)  -->
<!DOCTYPE svg PUBLIC "-//W3C//DTD SVG 1.1//EN" "http://www.w3.org/Graphics/SVG/1.1/DTD/svg11.dtd">
<svg version="1.1" xmlns="http://www.w3.org/2000/svg" xmlns:xlink="http://www.w3.org/1999/xlink" x="0px" y="0px" width="24px"
	 height="24px" viewBox="0 0 24 24" enable-background="new 0 0 24 24" xml:space="preserve">
<g id="Outline_Icons">
	<g>
		<path d="M14.5,11h-1.191l-0.086-0.17c-0.255-0.511-0.77-0.83-1.342-0.83H9.617c-0.57,0-1.085,0.318-1.342,0.83L8.19,11H7v-0.5
			C7,10.224,6.776,10,6.5,10H6c-0.276,0-0.5,0.224-0.5,0.5V11C4.673,11,4,11.673,4,12.5v6C4,19.327,4.673,20,5.5,20h9
			c0.827,0,1.5-0.673,1.5-1.5v-6C16,11.673,15.327,11,14.5,11z M15,18.5c0,0.276-0.225,0.5-0.5,0.5h-9C5.225,19,5,18.776,5,18.5v-6
			C5,12.224,5.225,12,5.5,12h3c0.189,0,0.363-0.107,0.447-0.277l0.223-0.446C9.255,11.106,9.427,11,9.617,11h2.264
			c0.188,0,0.363,0.108,0.447,0.277l0.225,0.448C12.638,11.894,12.811,12,13,12h1.5c0.275,0,0.5,0.224,0.5,0.5V18.5z"/>
		<path d="M10.5,13C9.121,13,8,14.122,8,15.5S9.121,18,10.5,18s2.5-1.122,2.5-2.5S11.879,13,10.5,13z M10.5,17
			C9.673,17,9,16.327,9,15.5S9.673,14,10.5,14s1.5,0.673,1.5,1.5S11.327,17,10.5,17z"/>
		<path d="M19.961,6.308c-0.025-0.061-0.062-0.116-0.108-0.162l-5.998-5.999c-0.046-0.045-0.101-0.083-0.162-0.107
			C13.632,0.014,13.566,0,13.5,0h-13C0.224,0,0,0.224,0,0.5v23C0,23.776,0.224,24,0.5,24h19c0.276,0,0.5-0.224,0.5-0.5v-17
			C20,6.433,19.986,6.368,19.961,6.308z M14,1.707L18.293,6H14V1.707z M1,23V1h12v5.5C13,6.776,13.224,7,13.5,7H19v16H1z"/>
	</g>
</g>
<g id="Invisible_Shape">
	<rect fill="none" width="24" height="24"/>
</g>
</svg>
