<?xml version="1.0" encoding="utf-8"?>
<!-- Generator: Adobe Illustrator 16.0.3, SVG Export Plug-In . SVG Version: 6.00 Build 0)  -->
<!DOCTYPE svg PUBLIC "-//W3C//DTD SVG 1.1//EN" "http://www.w3.org/Graphics/SVG/1.1/DTD/svg11.dtd">
<svg version="1.1" xmlns="http://www.w3.org/2000/svg" xmlns:xlink="http://www.w3.org/1999/xlink" x="0px" y="0px" width="24px"
	 height="24px" viewBox="0 0 24 24" enable-background="new 0 0 24 24" xml:space="preserve">
<g id="Outline_Icons">
	<g>
		<path d="M23.854,23.146L21,20.293c0.616-0.77,1-1.733,1-2.793c0-2.481-2.018-4.5-4.499-4.5C15.019,13,13,15.018,13,17.5
			s2.019,4.5,4.501,4.5c1.06,0,2.022-0.384,2.792-1l2.854,2.853C23.244,23.951,23.372,24,23.5,24s0.256-0.049,0.354-0.147
			C24.049,23.658,24.049,23.341,23.854,23.146z M14,17.5c0-1.93,1.57-3.5,3.501-3.5C19.43,14,21,15.57,21,17.5S19.43,21,17.501,21
			C15.57,21,14,19.429,14,17.5z"/>
		<path d="M9.5,17H3.722C3.894,16.704,4,16.365,4,16V5h16v4.5c0,0.276,0.224,0.5,0.5,0.5S21,9.776,21,9.5v-5
			C21,4.223,20.776,4,20.5,4H19V2.5C19,2.223,18.776,2,18.5,2H6V0.5C6,0.223,5.776,0,5.5,0h-5C0.224,0,0,0.223,0,0.5V16
			c0,1.103,0.897,2,2,2h7.5c0.276,0,0.5-0.224,0.5-0.5S9.776,17,9.5,17z M1,16V1h4v1.5C5,2.776,5.224,3,5.5,3H18v1H3.5
			C3.224,4,3,4.223,3,4.5V16c0,0.551-0.449,1-1,1S1,16.551,1,16z"/>
	</g>
</g>
<g id="Invisible_Shape">
	<rect fill="none" width="24" height="24"/>
</g>
</svg>
