<?xml version="1.0" encoding="utf-8"?>
<!-- Generator: Adobe Illustrator 16.0.3, SVG Export Plug-In . SVG Version: 6.00 Build 0)  -->
<!DOCTYPE svg PUBLIC "-//W3C//DTD SVG 1.1//EN" "http://www.w3.org/Graphics/SVG/1.1/DTD/svg11.dtd">
<svg version="1.1" xmlns="http://www.w3.org/2000/svg" xmlns:xlink="http://www.w3.org/1999/xlink" x="0px" y="0px" width="24px"
	 height="24px" viewBox="0 0 24 24" enable-background="new 0 0 24 24" xml:space="preserve">
<g id="Outline_Icons">
	<g>
		<path d="M22.5,8H21V6.5C21,6.223,20.776,6,20.5,6H19V4.5C19,4.223,18.776,4,18.5,4H7.707L5.854,2.146C5.76,2.052,5.633,2,5.5,2h-5
			C0.224,2,0,2.223,0,2.5v14C0,16.776,0.224,17,0.5,17S1,16.776,1,16.5V3h4.293l1.854,1.853C7.24,4.947,7.367,5,7.5,5H18v1H2.5
			C2.224,6,2,6.223,2,6.5v12C2,18.776,2.224,19,2.5,19S3,18.776,3,18.5V7h17v1H4.5C4.224,8,4,8.223,4,8.5v12
			C4,20.776,4.224,21,4.5,21h18c0.276,0,0.5-0.224,0.5-0.5v-12C23,8.223,22.776,8,22.5,8z M22,20H5V9h17V20z"/>
		<path d="M19.5,11h-12C7.224,11,7,11.223,7,11.5S7.224,12,7.5,12h12c0.276,0,0.5-0.224,0.5-0.5S19.776,11,19.5,11z"/>
		<path d="M13,14H7.5C7.224,14,7,14.223,7,14.5S7.224,15,7.5,15H13c0.276,0,0.5-0.224,0.5-0.5S13.276,14,13,14z"/>
		<path d="M13,17H7.5C7.224,17,7,17.223,7,17.5S7.224,18,7.5,18H13c0.276,0,0.5-0.224,0.5-0.5S13.276,17,13,17z"/>
		<path d="M19.5,13h-4c-0.276,0-0.5,0.224-0.5,0.5v1c0,0.276,0.224,0.5,0.5,0.5s0.5-0.224,0.5-0.5V14h1v3h-1
			c-0.276,0-0.5,0.224-0.5,0.5S15.724,18,16,18h3c0.276,0,0.5-0.224,0.5-0.5S19.276,17,19,17h-1v-3h1v0.5c0,0.276,0.224,0.5,0.5,0.5
			s0.5-0.224,0.5-0.5v-1C20,13.223,19.776,13,19.5,13z"/>
	</g>
</g>
<g id="Invisible_Shape">
	<rect fill="none" width="24" height="24"/>
</g>
</svg>
