<?xml version="1.0" encoding="utf-8"?>
<!-- Generator: Adobe Illustrator 16.0.3, SVG Export Plug-In . SVG Version: 6.00 Build 0)  -->
<!DOCTYPE svg PUBLIC "-//W3C//DTD SVG 1.1//EN" "http://www.w3.org/Graphics/SVG/1.1/DTD/svg11.dtd">
<svg version="1.1" xmlns="http://www.w3.org/2000/svg" xmlns:xlink="http://www.w3.org/1999/xlink" x="0px" y="0px" width="24px"
	 height="24px" viewBox="0 0 24 24" enable-background="new 0 0 24 24" xml:space="preserve">
<g id="Outline_Icons">
	<g>
		<path d="M23.5,0h-23C0.224,0,0,0.224,0,0.5v15C0,15.776,0.224,16,0.5,16H11v2.293l-4.854,4.854c-0.195,0.195-0.195,0.512,0,0.707
			c0.195,0.195,0.512,0.195,0.707,0l4.646-4.647l4.646,4.647C16.244,23.951,16.372,24,16.5,24s0.256-0.049,0.354-0.146
			c0.195-0.195,0.195-0.512,0-0.707L12,18.293V16h11.5c0.276,0,0.5-0.224,0.5-0.5v-15C24,0.224,23.776,0,23.5,0z M23,15H1V1h22V15z"
			/>
		<path d="M2.5,14h19c0.276,0,0.5-0.224,0.5-0.5v-11C22,2.224,21.776,2,21.5,2h-19C2.224,2,2,2.224,2,2.5v11
			C2,13.776,2.224,14,2.5,14z M21,3v10H3V9h3.5c0.152,0,0.296-0.069,0.391-0.188l1.486-1.858l1.666,3.749
			c0.07,0.158,0.217,0.268,0.388,0.292C10.454,10.999,10.478,11,10.5,11c0.147,0,0.288-0.064,0.384-0.18l2.149-2.58l1.613,1.613
			c0.104,0.105,0.252,0.16,0.397,0.144c0.146-0.012,0.281-0.09,0.365-0.211l3.5-5c0.159-0.226,0.104-0.538-0.122-0.696
			c-0.227-0.157-0.538-0.104-0.696,0.124l-3.158,4.511l-1.579-1.579c-0.099-0.1-0.229-0.149-0.376-0.146
			c-0.141,0.006-0.271,0.072-0.361,0.179l-1.985,2.383L8.957,5.797c-0.071-0.16-0.22-0.271-0.394-0.293
			c-0.165-0.02-0.345,0.047-0.454,0.184L6.26,8H3V3H21z"/>
	</g>
</g>
<g id="Invisibla_Shape">
	<rect fill="none" width="24" height="24"/>
</g>
</svg>
