<?xml version="1.0" encoding="utf-8"?>
<!-- Generator: Adobe Illustrator 16.0.3, SVG Export Plug-In . SVG Version: 6.00 Build 0)  -->
<!DOCTYPE svg PUBLIC "-//W3C//DTD SVG 1.1//EN" "http://www.w3.org/Graphics/SVG/1.1/DTD/svg11.dtd">
<svg version="1.1" xmlns="http://www.w3.org/2000/svg" xmlns:xlink="http://www.w3.org/1999/xlink" x="0px" y="0px" width="24px"
	 height="24px" viewBox="0 0 24 24" enable-background="new 0 0 24 24" xml:space="preserve">
<g id="Outline_Icons">
	<g>
		<rect x="4" y="2" width="15" height="1"/>
		<rect x="4" y="6" width="15" height="1"/>
		<rect x="4" y="10" width="15" height="1"/>
		<rect x="4" y="14" width="7" height="1"/>
		<rect x="4" y="18" width="7" height="1"/>
		<path d="M18.5,13c-3.032,0-5.5,2.468-5.5,5.5s2.468,5.5,5.5,5.5s5.5-2.468,5.5-5.5S21.532,13,18.5,13z M18.5,23
			c-2.481,0-4.5-2.019-4.5-4.5s2.019-4.5,4.5-4.5s4.5,2.019,4.5,4.5S20.981,23,18.5,23z"/>
		<path d="M21,18h-2v-2c0-0.276-0.224-0.5-0.5-0.5S18,15.724,18,16v2h-2c-0.276,0-0.5,0.224-0.5,0.5S15.724,19,16,19h2v2
			c0,0.276,0.224,0.5,0.5,0.5S19,21.276,19,21v-2h2c0.276,0,0.5-0.224,0.5-0.5S21.276,18,21,18z"/>
		<rect x="1" y="2" width="1" height="1"/>
		<rect x="1" y="6" width="1" height="1"/>
		<rect x="1" y="10" width="1" height="1"/>
		<rect x="1" y="14" width="1" height="1"/>
		<rect x="1" y="18" width="1" height="1"/>
	</g>
</g>
<g id="Invisible_Shape">
	<rect fill="none" width="24" height="24"/>
</g>
</svg>
