<?xml version="1.0" encoding="utf-8"?>
<!-- Generator: Adobe Illustrator 16.0.3, SVG Export Plug-In . SVG Version: 6.00 Build 0)  -->
<!DOCTYPE svg PUBLIC "-//W3C//DTD SVG 1.1//EN" "http://www.w3.org/Graphics/SVG/1.1/DTD/svg11.dtd">
<svg version="1.1" xmlns="http://www.w3.org/2000/svg" xmlns:xlink="http://www.w3.org/1999/xlink" x="0px" y="0px" width="24px"
	 height="24px" viewBox="0 0 24 24" enable-background="new 0 0 24 24" xml:space="preserve">
<g id="Outline_Icons_1_">
	<g>
		<path d="M20.5,13c0.276,0,0.5-0.224,0.5-0.5v-3C21,9.224,20.776,9,20.5,9H18V6c0-3.309-2.691-6-6-6S6,2.691,6,6v3H3.5
			C3.224,9,3,9.224,3,9.5v14C3,23.776,3.224,24,3.5,24h17c0.276,0,0.5-0.224,0.5-0.5v-3c0-0.276-0.224-0.5-0.5-0.5H16v-1h5v-1h-5v-1
			h5v-1h-5v-1h5v-1h-5v-1H20.5z M7,6c0-2.757,2.243-5,5-5s5,2.243,5,5v3H7V6z M20,21v2H4V10h16v2h-4.5c-0.276,0-0.5,0.224-0.5,0.5v8
			c0,0.276,0.224,0.5,0.5,0.5H20z"/>
	</g>
</g>
<g id="Invisible_Shape">
	<rect fill="none" width="24" height="24"/>
</g>
</svg>
