<?xml version="1.0" encoding="utf-8"?>
<!-- Generator: Adobe Illustrator 16.0.3, SVG Export Plug-In . SVG Version: 6.00 Build 0)  -->
<!DOCTYPE svg PUBLIC "-//W3C//DTD SVG 1.1//EN" "http://www.w3.org/Graphics/SVG/1.1/DTD/svg11.dtd">
<svg version="1.1" xmlns="http://www.w3.org/2000/svg" xmlns:xlink="http://www.w3.org/1999/xlink" x="0px" y="0px" width="24px"
	 height="24px" viewBox="0 0 24 24" enable-background="new 0 0 24 24" xml:space="preserve">
<g id="Outline_Icons">
	<path d="M17.5,17h-5c-1.378,0-2.5-1.122-2.5-2.5V12h7.5c1.93,0,3.5-1.57,3.5-3.5S19.43,5,17.5,5H10V3.5C10,1.57,8.43,0,6.5,0
		S3,1.57,3,3.5v12c0,4.687,3.813,8.5,8.5,8.5h6c1.93,0,3.5-1.57,3.5-3.5S19.43,17,17.5,17z M17.5,23h-6C7.364,23,4,19.636,4,15.5
		v-12C4,2.122,5.122,1,6.5,1S9,2.122,9,3.5v2C9,5.776,9.224,6,9.5,6h8C18.878,6,20,7.122,20,8.5S18.878,11,17.5,11h-8
		C9.224,11,9,11.224,9,11.5v3c0,1.93,1.57,3.5,3.5,3.5h5c1.378,0,2.5,1.122,2.5,2.5S18.878,23,17.5,23z"/>
</g>
<g id="Frames-24px">
	<rect fill="none" width="24" height="24"/>
</g>
</svg>
