<?xml version="1.0" encoding="utf-8"?>
<!-- Generator: Adobe Illustrator 16.0.3, SVG Export Plug-In . SVG Version: 6.00 Build 0)  -->
<!DOCTYPE svg PUBLIC "-//W3C//DTD SVG 1.1//EN" "http://www.w3.org/Graphics/SVG/1.1/DTD/svg11.dtd">
<svg version="1.1" xmlns="http://www.w3.org/2000/svg" xmlns:xlink="http://www.w3.org/1999/xlink" x="0px" y="0px" width="24px"
	 height="24px" viewBox="0 0 24 24" enable-background="new 0 0 24 24" xml:space="preserve">
<g id="Outline_Icons">
	<path d="M23.102,3.252c-0.714-0.852-1.825-1.321-3.129-1.321c-2.852,0-6.165,2.176-6.772,5.819
		c-0.032,0.192,0.051,0.386,0.212,0.496c0.161,0.11,0.372,0.115,0.539,0.015c1.007-0.604,1.871-0.605,2.243,0.015
		c0.273,0.455,0.349,1.345-0.255,2.474c-1.637,3.064-2.564,3.841-2.721,3.891c-0.431-0.239-1.107-2.944-1.433-4.245
		c-0.161-0.644-0.288-1.406-0.421-2.211c-0.509-3.064-1.087-6.621-4.071-6.04C4.178,2.758,0.281,7.376,0.117,7.573
		c-0.15,0.179-0.156,0.438-0.014,0.624l0.934,1.224c0.081,0.106,0.202,0.176,0.334,0.193c0.131,0.015,0.267-0.021,0.372-0.103
		c0.425-0.334,1.276-0.864,1.746-0.864c0.103,0,0.125,0.026,0.13,0.033c0.3,0.393,1.27,3.566,1.979,5.882
		c0.757,2.477,1.472,4.816,1.867,5.631C8.137,21.59,9.566,23,11.241,23c0.614,0,1.216-0.189,1.791-0.562
		c1.949-1.262,9.501-7.526,10.846-15.101C24.26,5.183,23.667,3.927,23.102,3.252z M22.894,7.162
		c-1.282,7.22-8.534,13.225-10.406,14.437C12.078,21.865,11.659,22,11.241,22c-1.235,0-2.356-1.162-2.876-2.242
		c-0.362-0.747-1.099-3.157-1.812-5.489c-1.194-3.906-1.797-5.795-2.169-6.233c-0.15-0.178-0.428-0.39-0.896-0.39
		c-0.667,0-1.471,0.459-1.952,0.782L1.145,7.915c0.908-1.022,3.994-4.326,6.34-4.788c0.133-0.025,0.258-0.039,0.377-0.039
		c1.64,0,2.104,2.795,2.514,5.261c0.138,0.826,0.267,1.607,0.438,2.29c0.886,3.547,1.348,4.992,2.353,4.992
		c0.32,0,1.295,0,3.652-4.41c0.681-1.272,0.767-2.565,0.231-3.459c-0.507-0.848-1.501-1.162-2.613-0.818
		c0.89-2.502,3.413-4.013,5.534-4.013c1.003,0,1.842,0.342,2.363,0.963C22.95,4.628,23.143,5.758,22.894,7.162z"/>
</g>
<g id="Frames-24px">
	<rect fill="none" width="24" height="24"/>
</g>
</svg>
