<?xml version="1.0" encoding="utf-8"?>
<!-- Generator: Adobe Illustrator 16.0.3, SVG Export Plug-In . SVG Version: 6.00 Build 0)  -->
<!DOCTYPE svg PUBLIC "-//W3C//DTD SVG 1.1//EN" "http://www.w3.org/Graphics/SVG/1.1/DTD/svg11.dtd">
<svg version="1.1" xmlns="http://www.w3.org/2000/svg" xmlns:xlink="http://www.w3.org/1999/xlink" x="0px" y="0px" width="24px"
	 height="24px" viewBox="0 0 24 24" enable-background="new 0 0 24 24" xml:space="preserve">
<g id="Outline_Icons">
	<path d="M23.46,14.281C23.376,14.108,23.202,14,23.011,14h-6.595c-0.115,0-0.228,0.04-0.317,0.113l-2.443,2
		c-0.163,0.135-0.225,0.355-0.154,0.555C13.573,16.867,13.761,17,13.973,17H18v3.555c0,0.12,0.008,0.223,0.015,0.312
		c0.001,0.016,0.003,0.031,0.004,0.047c-0.061,0.029-0.175,0.077-0.385,0.146c-1.192,0.312-2.708,0.412-4.109,0.293
		c-4.383-0.364-7.9-3.737-8.753-8.396C4.022,8.855,5.888,4.82,9.31,3.145c1.878-0.918,3.807-1.09,5.666-0.494
		c1.206,0.385,2.323,1.055,3.327,1.995L17.711,5.72c-0.097,0.177-0.079,0.396,0.047,0.553c0.125,0.159,0.334,0.229,0.528,0.169
		l1.456-0.414c0.083-0.023,0.16-0.068,0.22-0.129l2.249-2.294c0.098-0.101,0.149-0.236,0.143-0.377
		c-0.007-0.14-0.073-0.27-0.181-0.358C19.971,1.046,16.758,0,13.358,0C10.999,0,8.776,0.493,6.93,1.427
		c-4.072,2.06-6.79,6.126-6.923,10.356c-0.152,4.768,2.634,8.383,5.292,10.176C7.278,23.295,9.916,24,12.926,24
		c3.048,0,6.255-0.736,8.799-2.021C21.894,21.895,22,21.722,22,21.533v-4.918l1.405-1.809C23.522,14.656,23.544,14.452,23.46,14.281
		z M21.105,16.136C21.037,16.224,21,16.332,21,16.442v4.779C18.637,22.354,15.714,23,12.926,23c-2.81,0-5.254-0.646-7.068-1.869
		c-2.437-1.645-4.991-4.955-4.853-9.316C1.128,7.943,3.63,4.217,7.381,2.319C9.063,1.469,11.186,1,13.358,1
		c2.953,0,5.741,0.834,7.747,2.304l-1.764,1.799l-0.177,0.05l0.197-0.358C19.469,4.6,19.435,4.357,19.278,4.2
		c-1.186-1.193-2.531-2.036-3.999-2.503c-2.102-0.674-4.3-0.482-6.41,0.549C5.047,4.119,2.958,8.597,3.79,13.137
		c0.92,5.027,4.89,8.816,9.653,9.213c1.523,0.131,3.121,0.025,4.473-0.331c0.822-0.266,1.156-0.495,1.096-1.233
		C19.006,20.72,19,20.644,19,20.555V16.5c0-0.276-0.224-0.5-0.5-0.5h-3.127l1.222-1h5.394L21.105,16.136z"/>
</g>
<g id="Frames-24px">
	<rect fill="none" width="24" height="24"/>
</g>
</svg>
