<?xml version="1.0" encoding="utf-8"?>
<!-- Generator: Adobe Illustrator 16.0.3, SVG Export Plug-In . SVG Version: 6.00 Build 0)  -->
<!DOCTYPE svg PUBLIC "-//W3C//DTD SVG 1.1//EN" "http://www.w3.org/Graphics/SVG/1.1/DTD/svg11.dtd">
<svg version="1.1" xmlns="http://www.w3.org/2000/svg" xmlns:xlink="http://www.w3.org/1999/xlink" x="0px" y="0px" width="24px"
	 height="24px" viewBox="0 0 24 24" enable-background="new 0 0 24 24" xml:space="preserve">
<g id="Outline_Icons_1_">
	<g id="Outline_Icons">
		<g>
			<path d="M16.5,4h-9C6.673,4,6,4.673,6,5.5v11C6,17.327,6.673,18,7.5,18h9c0.827,0,1.5-0.673,1.5-1.5v-11
				C18,4.673,17.327,4,16.5,4z M17,16.5c0,0.275-0.224,0.5-0.5,0.5h-9C7.224,17,7,16.775,7,16.5v-11C7,5.225,7.224,5,7.5,5h9
				C16.776,5,17,5.225,17,5.5V16.5z"/>
			<path d="M16.5,0h-9C5.57,0,4,1.57,4,3.5v17C4,22.43,5.57,24,7.5,24h9c1.93,0,3.5-1.57,3.5-3.5v-17C20,1.57,18.43,0,16.5,0z
				 M19,20.5c0,1.379-1.122,2.5-2.5,2.5h-9C6.122,23,5,21.879,5,20.5v-17C5,2.121,6.122,1,7.5,1h9C17.878,1,19,2.121,19,3.5V20.5z"
				/>
			<path d="M9.5,3h5C14.776,3,15,2.776,15,2.5S14.776,2,14.5,2h-5C9.224,2,9,2.224,9,2.5S9.224,3,9.5,3z"/>
			<rect x="8" y="20" width="1" height="1"/>
			<rect x="15" y="20" width="1" height="1"/>
			<path d="M13.5,19h-3c-0.276,0-0.5,0.224-0.5,0.5v2c0,0.276,0.224,0.5,0.5,0.5h3c0.276,0,0.5-0.224,0.5-0.5v-2
				C14,19.224,13.776,19,13.5,19z M13,21h-2v-1h2V21z"/>
		</g>
	</g>
	<g id="New_icons_1_">
	</g>
</g>
<g id="Invisible_Shape">
	<rect fill="none" width="24" height="24"/>
</g>
</svg>
