<?xml version="1.0" encoding="utf-8"?>
<!-- Generator: Adobe Illustrator 16.0.3, SVG Export Plug-In . SVG Version: 6.00 Build 0)  -->
<!DOCTYPE svg PUBLIC "-//W3C//DTD SVG 1.1//EN" "http://www.w3.org/Graphics/SVG/1.1/DTD/svg11.dtd">
<svg version="1.1" xmlns="http://www.w3.org/2000/svg" xmlns:xlink="http://www.w3.org/1999/xlink" x="0px" y="0px" width="24px"
	 height="24px" viewBox="0 0 24 24" enable-background="new 0 0 24 24" xml:space="preserve">
<g id="Outline_Icons">
	<g>
		<path d="M12,9c-1.995,0-3.5,0.86-3.5,2c0,1.14,1.505,2,3.5,2s3.5-0.86,3.5-2C15.5,9.86,13.995,9,12,9z M12,12
			c-1.526,0-2.5-0.592-2.5-1c0-0.407,0.974-1,2.5-1s2.5,0.593,2.5,1C14.5,11.408,13.526,12,12,12z"/>
		<path d="M24,10.504V10.5c0-0.004-0.003-0.008-0.003-0.013c-0.002-0.07-0.021-0.137-0.051-0.199
			c-0.01-0.021-0.023-0.038-0.036-0.058c-0.028-0.044-0.062-0.08-0.104-0.113c-0.012-0.01-0.017-0.024-0.029-0.033
			c-0.011-0.007-0.024-0.006-0.035-0.013c-0.016-0.009-0.026-0.022-0.043-0.029L22.16,9.373C22.373,9.111,22.5,8.818,22.5,8.5
			c0-1.14-1.505-2-3.5-2c-0.911,0-1.711,0.186-2.32,0.489l-1.49-0.647C15.385,6.088,15.5,5.805,15.5,5.5c0-1.14-1.505-2-3.5-2
			s-3.5,0.86-3.5,2c0,0.305,0.115,0.588,0.311,0.842L7.58,6.877C7.005,6.641,6.295,6.5,5.5,6.5C3.505,6.5,2,7.36,2,8.5
			c0,0.252,0.085,0.488,0.221,0.707l-1.92,0.835c-0.016,0.006-0.025,0.019-0.039,0.027c-0.01,0.005-0.022,0.004-0.032,0.011
			c-0.013,0.008-0.019,0.024-0.031,0.033c-0.042,0.033-0.077,0.071-0.106,0.115c-0.013,0.02-0.027,0.037-0.037,0.059
			c-0.03,0.063-0.05,0.131-0.052,0.201C0.003,10.492,0,10.496,0,10.5v0.004v0.001V18.5c0,0.196,0.114,0.374,0.293,0.455l11,5
			C11.359,23.985,11.43,24,11.5,24c0.065,0,0.131-0.013,0.192-0.038l12-5C23.879,18.884,24,18.702,24,18.5v-7.994
			C24,10.505,24,10.505,24,10.504z M11.509,14.955L1.73,10.511l1.305-0.567C3.658,10.29,4.519,10.5,5.5,10.5c1.995,0,3.5-0.86,3.5-2
			c0-0.356-0.161-0.681-0.426-0.965l1.154-0.502C10.332,7.323,11.112,7.5,12,7.5s1.668-0.177,2.271-0.467l1.511,0.656
			C15.602,7.936,15.5,8.208,15.5,8.5c0,1.14,1.505,2,3.5,2c0.864,0,1.626-0.168,2.224-0.444l1,0.435L11.509,14.955z M21.5,8.5
			c0,0.164-0.163,0.355-0.45,0.529c-0.058,0.019-0.11,0.048-0.159,0.086C20.455,9.333,19.809,9.5,19,9.5c-1.526,0-2.5-0.592-2.5-1
			c0-0.407,0.974-1,2.5-1S21.5,8.093,21.5,8.5z M12,4.5c1.526,0,2.5,0.593,2.5,1c0,0.408-0.974,1-2.5,1s-2.5-0.592-2.5-1
			C9.5,5.093,10.474,4.5,12,4.5z M5.5,7.5c1.526,0,2.5,0.593,2.5,1c0,0.408-0.974,1-2.5,1S3,8.908,3,8.5C3,8.093,3.974,7.5,5.5,7.5z
			 M1,11.276l10,4.545v6.902L1,18.179V11.276z M23,18.167L12,22.75v-6.916l11-4.584V18.167z"/>
	</g>
</g>
<g id="Invisible_Shape">
	<rect fill="none" width="24" height="24"/>
</g>
</svg>
