<?xml version="1.0" encoding="utf-8"?>
<!-- Generator: Adobe Illustrator 16.0.3, SVG Export Plug-In . SVG Version: 6.00 Build 0)  -->
<!DOCTYPE svg PUBLIC "-//W3C//DTD SVG 1.1//EN" "http://www.w3.org/Graphics/SVG/1.1/DTD/svg11.dtd">
<svg version="1.1" xmlns="http://www.w3.org/2000/svg" xmlns:xlink="http://www.w3.org/1999/xlink" x="0px" y="0px" width="24px"
	 height="24px" viewBox="0 0 24 24" enable-background="new 0 0 24 24" xml:space="preserve">
<g id="Outline_Icons">
	<path d="M21.945,15.283c-0.009-0.02-0.022-0.034-0.034-0.052c-0.031-0.048-0.068-0.089-0.114-0.123
		c-0.011-0.008-0.015-0.021-0.026-0.029L17,12.011V7.5c0-0.082-0.024-0.156-0.059-0.224c-0.01-0.02-0.023-0.035-0.036-0.053
		c-0.033-0.049-0.072-0.089-0.12-0.124c-0.012-0.007-0.017-0.022-0.028-0.029l-5-3c-0.158-0.095-0.355-0.095-0.514,0l-5,3
		C6.231,7.078,6.227,7.093,6.215,7.1c-0.048,0.035-0.087,0.075-0.12,0.124C6.082,7.241,6.068,7.257,6.059,7.276
		C6.024,7.344,6,7.418,6,7.5v4.511L1.229,15.08c-0.012,0.007-0.016,0.021-0.026,0.029c-0.046,0.034-0.083,0.075-0.114,0.123
		c-0.012,0.018-0.025,0.032-0.034,0.052C1.022,15.349,1,15.421,1,15.5v4.784c0,0.17,0.087,0.329,0.229,0.421l5,3.216
		c0.009,0.006,0.021,0.003,0.029,0.009C6.331,23.971,6.411,24,6.5,24s0.169-0.029,0.241-0.07c0.009-0.006,0.021-0.003,0.029-0.009
		l4.729-3.042l4.729,3.042c0.009,0.006,0.021,0.003,0.029,0.009C16.331,23.971,16.411,24,16.5,24s0.169-0.029,0.241-0.07
		c0.009-0.006,0.021-0.003,0.029-0.009l5-3.216C21.913,20.613,22,20.454,22,20.284V15.5C22,15.421,21.978,15.349,21.945,15.283z
		 M16.5,17.917l-4.053-2.432l4.053-2.606l4.053,2.606L16.5,17.917z M7,18.783l4-2.4v3.628l-4,2.573V18.783z M16,12.011l-4,2.573
		v-3.801l4-2.4V12.011z M11,14.584l-4-2.573V8.383l4,2.4V14.584z M11.5,5.083L15.528,7.5L11.5,9.917L7.472,7.5L11.5,5.083z
		 M6.5,12.879l4.053,2.606L6.5,17.917l-4.053-2.432L6.5,12.879z M2,16.383l4,2.4v3.801l-4-2.573V16.383z M12,16.383l4,2.4v3.801
		l-4-2.573V16.383z M17,22.584v-3.801l4-2.4v3.628L17,22.584z"/>
</g>
<g id="Invisible_Shape">
	<rect fill="none" width="24" height="24"/>
</g>
</svg>
