<?xml version="1.0" encoding="utf-8"?>
<!-- Generator: Adobe Illustrator 16.0.3, SVG Export Plug-In . SVG Version: 6.00 Build 0)  -->
<!DOCTYPE svg PUBLIC "-//W3C//DTD SVG 1.1//EN" "http://www.w3.org/Graphics/SVG/1.1/DTD/svg11.dtd">
<svg version="1.1" xmlns="http://www.w3.org/2000/svg" xmlns:xlink="http://www.w3.org/1999/xlink" x="0px" y="0px" width="24px"
	 height="24px" viewBox="0 0 24 24" enable-background="new 0 0 24 24" xml:space="preserve">
<g id="Outline_Icons_1_">
	<g id="Outline_Icons">
		<g>
			<path d="M17.118,10.783c0.195,0.195,0.512,0.195,0.707,0s0.195-0.512,0-0.707c-4.078-4.081-10.747-4.104-14.849,0
				c-0.195,0.195-0.195,0.512,0,0.707s0.512,0.195,0.707,0C7.32,7.146,13.342,7.006,17.118,10.783z"/>
			<path d="M0.854,6.955c5.265-5.264,13.828-5.264,19.093,0c0.195,0.195,0.512,0.195,0.707,0s0.195-0.512,0-0.707
				c-5.654-5.653-14.853-5.653-20.507,0c-0.195,0.195-0.195,0.512,0,0.707S0.658,7.15,0.854,6.955z"/>
			<path d="M14.997,13.903c-2.534-2.533-6.657-2.534-9.193,0c-0.195,0.195-0.195,0.512,0,0.707s0.512,0.195,0.707,0
				c2.104-2.103,5.646-2.131,7.779,0c0.195,0.195,0.512,0.195,0.707,0S15.192,14.099,14.997,13.903z"/>
			<path d="M7.9,19.5c0,1.378,1.121,2.5,2.5,2.5s2.5-1.122,2.5-2.5S11.779,17,10.4,17S7.9,18.122,7.9,19.5z M11.9,19.5
				c0,0.827-0.673,1.5-1.5,1.5s-1.5-0.673-1.5-1.5S9.573,18,10.4,18S11.9,18.673,11.9,19.5z"/>
		</g>
	</g>
	<g id="New_icons_1_">
	</g>
</g>
<g id="Invisible_Shape">
	<rect fill="none" width="24" height="24"/>
</g>
</svg>
