<?xml version="1.0" encoding="utf-8"?>
<!-- Generator: Adobe Illustrator 19.2.1, SVG Export Plug-In . SVG Version: 6.00 Build 0)  -->
<svg version="1.1" xmlns="http://www.w3.org/2000/svg" xmlns:xlink="http://www.w3.org/1999/xlink" x="0px" y="0px" width="24px"
	 height="24px" viewBox="0 0 24 24" enable-background="new 0 0 24 24" xml:space="preserve">
<g id="Outline_Icons_1_">
	<g id="Outline_Icons">
		<path d="M22.94,2.732l-1.672-1.671c-0.975-0.975-2.561-0.975-3.535,0c-4.104,4.103-2.556,2.556-15.086,15.085
			c-0.054,0.054-0.106,0.147-0.125,0.207l-2,6.5c-0.117,0.382,0.24,0.742,0.625,0.625c0.193-0.059,6.326-1.944,6.516-2.01
			c0.069-0.024,0.135-0.06,0.19-0.115C22.762,6.445,18.925,10.282,22.94,6.268c0.471-0.471,0.73-1.098,0.73-1.768
			C23.67,3.832,23.41,3.204,22.94,2.732z M19.5,8.293L15.707,4.5L16.5,3.707L20.293,7.5L19.5,8.293z M4.2,21.492l-1.692-1.691
			l0.726-2.36l0.413,0.413C3.74,17.947,3.867,18,4,18h2v2c0,0.133,0.053,0.26,0.147,0.354l0.413,0.413L4.2,21.492z M6.293,17H4.207
			l-0.5-0.5L15,5.207l1.543,1.543L6.293,17z M2.175,20.882l0.943,0.943l-1.362,0.419L2.175,20.882z M7.5,20.293l-0.5-0.5v-2.086
			l10.25-10.25L18.793,9L7.5,20.293z M22.232,5.561L21,6.793L17.207,3l1.232-1.232c0.585-0.584,1.536-0.584,2.121,0l1.672,1.671
			c0.282,0.282,0.438,0.659,0.438,1.061C22.67,4.903,22.515,5.279,22.232,5.561z"/>
	</g>
	<g id="New_icons_1_">
	</g>
</g>
<g id="Invisible_Shape">
	<rect fill="none" width="24" height="24"/>
</g>
</svg>
