<?xml version="1.0" encoding="utf-8"?>
<!-- Generator: Adobe Illustrator 16.0.3, SVG Export Plug-In . SVG Version: 6.00 Build 0)  -->
<!DOCTYPE svg PUBLIC "-//W3C//DTD SVG 1.1//EN" "http://www.w3.org/Graphics/SVG/1.1/DTD/svg11.dtd">
<svg version="1.1" xmlns="http://www.w3.org/2000/svg" xmlns:xlink="http://www.w3.org/1999/xlink" x="0px" y="0px" width="24px"
	 height="24px" viewBox="0 0 24 24" enable-background="new 0 0 24 24" xml:space="preserve">
<g id="Outline_Icons_1_">
	<g id="Outline_Icons">
		<g>
			<path d="M6.5,19h10c0.276,0,0.5-0.224,0.5-0.5v-3c0-0.772-0.582-1.543-1.325-1.755L13.5,13.123v-0.765
				c0.904-0.683,1.5-1.81,1.5-3.088C15,7.191,13.43,5.5,11.5,5.5S8,7.191,8,9.271c0,1.278,0.596,2.405,1.5,3.088v0.765l-2.177,0.622
				C6.581,13.958,6,14.729,6,15.5v3C6,18.776,6.224,19,6.5,19z M11.5,6.5c1.118,0,2.055,0.822,2.374,1.946
				c-0.157,0.05-0.359,0.075-0.584,0.042c-0.224-0.033-0.631-0.148-0.849-0.554c-0.075-0.139-0.211-0.235-0.368-0.257
				c-0.157-0.023-0.314,0.029-0.426,0.141c-0.73,0.73-1.821,0.788-2.492,0.527C9.5,7.273,10.416,6.5,11.5,6.5z M9.007,9.352
				c0.886,0.267,2.018,0.157,2.913-0.465c0.319,0.312,0.743,0.52,1.224,0.591c0.118,0.017,0.237,0.025,0.354,0.025
				c0.168,0,0.33-0.023,0.487-0.057c-0.083,1.446-1.16,2.597-2.484,2.597C10.146,12.042,9.047,10.841,9.007,9.352z M7,15.5
				c0-0.325,0.285-0.704,0.598-0.793l2.539-0.726c0.215-0.062,0.363-0.257,0.363-0.481v-0.633c0.319,0.103,0.65,0.175,1,0.175
				s0.681-0.072,1-0.175V13.5c0,0.224,0.148,0.419,0.363,0.481l2.538,0.726c0.314,0.089,0.6,0.468,0.6,0.793V18H7V15.5z"/>
			<path d="M21.5,1.5H21v-1C21,0.224,20.776,0,20.5,0h-19C0.673,0,0,0.673,0,1.5v21C0,23.327,0.673,24,1.5,24h19
				c0.276,0,0.5-0.224,0.5-0.5v-1h0.5c1.378,0,2.5-1.122,2.5-2.5V4C24,2.622,22.878,1.5,21.5,1.5z M1,22.5v-21
				C1,1.224,1.224,1,1.5,1H3v22H1.5C1.224,23,1,22.776,1,22.5z M20,23H4V1h16V23z M23,11.5h-2v-4h2V11.5z M23,12.5v4h-2v-4H23z
				 M21.5,2.5C22.327,2.5,23,3.173,23,4v2.5h-2v-4H21.5z M23,20c0,0.827-0.673,1.5-1.5,1.5H21v-4h2V20z"/>
		</g>
	</g>
	<g id="New_icons_1_">
	</g>
</g>
<g id="Invisible_Shape">
	<rect fill="none" width="24" height="24"/>
</g>
</svg>
