<?xml version="1.0" encoding="utf-8"?>
<!-- Generator: Adobe Illustrator 16.0.3, SVG Export Plug-In . SVG Version: 6.00 Build 0)  -->
<!DOCTYPE svg PUBLIC "-//W3C//DTD SVG 1.1//EN" "http://www.w3.org/Graphics/SVG/1.1/DTD/svg11.dtd">
<svg version="1.1" xmlns="http://www.w3.org/2000/svg" xmlns:xlink="http://www.w3.org/1999/xlink" x="0px" y="0px" width="24px"
	 height="24px" viewBox="0 0 24 24" enable-background="new 0 0 24 24" xml:space="preserve">
<g id="Outline_Icons_1_">
	<g id="Outline_Icons">
		<g>
			<path d="M21.1,3.01L21.1,3.01c-6.04-1.228-12.163-1.229-18.2,0C1.274,3.343,0,4.875,0,6.5v2C0,9.879,1.122,11,2.5,11h3
				C6.878,11,8,9.879,8,8.5V7.455c2.658-0.236,5.344-0.236,8,0V8.5c0,1.379,1.122,2.5,2.5,2.5h3c1.378,0,2.5-1.121,2.5-2.5v-2
				C24,4.875,22.726,3.343,21.1,3.01z M23,8.5c0,0.813-0.687,1.5-1.5,1.5h-3C17.687,10,17,9.313,17,8.5V7
				c0-0.257-0.195-0.473-0.451-0.498c-1.509-0.149-3.029-0.224-4.548-0.224c-1.52,0-3.041,0.074-4.55,0.224C7.195,6.527,7,6.743,7,7
				v1.5C7,9.313,6.313,10,5.5,10h-3C1.687,10,1,9.313,1,8.5v-2c0-1.147,0.942-2.273,2.1-2.51c5.904-1.203,11.893-1.203,17.801,0
				C22.058,4.227,23,5.353,23,6.5V8.5z"/>
			<path d="M14,11.025V9.5C14,9.224,13.776,9,13.5,9S13,9.224,13,9.5V11h-2V9.5C11,9.224,10.776,9,10.5,9S10,9.224,10,9.5v1.525
				c-4.454,0.261-8,3.957-8,8.475v3C2,22.776,2.224,23,2.5,23h19c0.276,0,0.5-0.224,0.5-0.5v-3C22,14.982,18.454,11.286,14,11.025z
				 M21,22H3v-2.5c0-4.136,3.364-7.5,7.5-7.5h3c4.136,0,7.5,3.364,7.5,7.5V22z"/>
			<path d="M12,13c-2.206,0-4,1.794-4,4s1.794,4,4,4s4-1.794,4-4S14.206,13,12,13z M12,20c-1.654,0-3-1.346-3-3s1.346-3,3-3
				s3,1.346,3,3S13.654,20,12,20z"/>
		</g>
	</g>
	<g id="New_icons_1_">
	</g>
</g>
<g id="Invisible_Shape">
	<rect fill="none" width="24" height="24"/>
</g>
</svg>
