<?xml version="1.0" encoding="utf-8"?>
<!-- Generator: Adobe Illustrator 19.2.1, SVG Export Plug-In . SVG Version: 6.00 Build 0)  -->
<svg version="1.1" xmlns="http://www.w3.org/2000/svg" xmlns:xlink="http://www.w3.org/1999/xlink" x="0px" y="0px" width="24px"
	 height="24px" viewBox="0 0 24 24" enable-background="new 0 0 24 24" xml:space="preserve">
<g id="Outline_Icons_1_">
	<g id="Outline_Icons">
		<g>
			<path d="M19.5,12.5c-0.276,0-0.5,0.224-0.5,0.5v10H1V3h12c0.276,0,0.5-0.224,0.5-0.5S13.276,2,13,2H0.5C0.224,2,0,2.224,0,2.5v21
				C0,23.776,0.224,24,0.5,24h19c0.276,0,0.5-0.224,0.5-0.5V13C20,12.724,19.776,12.5,19.5,12.5z"/>
			<path d="M10.108,8.55c-0.582,1.694-0.338,3.219,0.685,4.446l-3.52,3.519c-0.195,0.195-0.195,0.512,0,0.707
				c0.098,0.098,0.226,0.146,0.354,0.146c0.128,0,0.256-0.049,0.354-0.146l3.54-3.54c0.494,0.327,1.092,0.497,1.764,0.497
				c0.36,0,0.742-0.048,1.139-0.146c1.46-0.359,3.068-1.384,4.65-2.965c3.366-3.368,4.83-9.671,4.891-9.938
				C24,0.97,23.956,0.802,23.845,0.681c-0.112-0.122-0.275-0.179-0.438-0.157c-0.135,0.019-3.338,0.483-6.34,1.799
				c-0.147,0.065-0.254,0.196-0.288,0.353C16.613,3.443,16.005,5.269,15,5.748V4.055c0-0.143-0.061-0.28-0.169-0.375
				c-0.108-0.095-0.252-0.139-0.393-0.122C13.516,3.673,10.984,6.003,10.108,8.55z M14,4.899v1.466c0,0.276,0.224,0.5,0.5,0.5
				c2.049,0,2.959-2.836,3.193-3.723c1.966-0.83,4.03-1.293,5.104-1.498c-0.488,1.751-1.919,6.203-4.432,8.717
				c-1.835,1.834-3.287,2.481-4.182,2.701c-0.758,0.186-1.425,0.146-1.934-0.109l4.842-4.842c0.195-0.195,0.195-0.512,0-0.707
				c-0.195-0.195-0.512-0.195-0.707,0l-4.886,4.886c-0.697-0.879-0.876-1.934-0.53-3.144C11.506,7.267,13.095,5.601,14,4.899z"/>
		</g>
	</g>
	<g id="New_icons_1_">
	</g>
</g>
<g id="Invisible_Shape">
	<rect fill="none" width="24" height="24"/>
</g>
</svg>
