<?xml version="1.0" encoding="utf-8"?>
<!-- Generator: Adobe Illustrator 16.0.3, SVG Export Plug-In . SVG Version: 6.00 Build 0)  -->
<!DOCTYPE svg PUBLIC "-//W3C//DTD SVG 1.1//EN" "http://www.w3.org/Graphics/SVG/1.1/DTD/svg11.dtd">
<svg version="1.1" xmlns="http://www.w3.org/2000/svg" xmlns:xlink="http://www.w3.org/1999/xlink" x="0px" y="0px" width="24px"
	 height="24px" viewBox="0 0 24 24" enable-background="new 0 0 24 24" xml:space="preserve">
<g id="Outline_Icons">
	<g>
		<path d="M12,0C5.383,0,0,5.383,0,12s5.383,12,12,12s12-5.383,12-12S18.616,0,12,0z M12,23C5.934,23,1,18.065,1,12S5.934,1,12,1
			s11,4.935,11,11S18.065,23,12,23z"/>
		<path d="M18.363,5.637c-0.195-0.195-0.512-0.195-0.707,0l-4.647,4.646C12.712,10.107,12.369,10,12,10c-1.103,0-2,0.897-2,2
			s0.897,2,2,2s2-0.897,2-2c0-0.369-0.108-0.712-0.284-1.01l4.647-4.646C18.558,6.148,18.558,5.832,18.363,5.637z M12,13
			c-0.551,0-1-0.448-1-1s0.449-1,1-1s1,0.448,1,1S12.551,13,12,13z"/>
		<path d="M4.943,11.5c0-0.276-0.224-0.5-0.5-0.5h-2c-0.276,0-0.5,0.224-0.5,0.5s0.224,0.5,0.5,0.5h2
			C4.72,12,4.943,11.776,4.943,11.5z"/>
		<path d="M4.879,14.408l-1.849,0.765c-0.255,0.105-0.376,0.397-0.271,0.653c0.08,0.192,0.266,0.309,0.462,0.309
			c0.064,0,0.128-0.012,0.191-0.038l1.849-0.765c0.255-0.105,0.376-0.397,0.271-0.653C5.427,14.424,5.134,14.301,4.879,14.408z"/>
		<path d="M20.967,15.174l-1.847-0.766c-0.254-0.106-0.548,0.015-0.653,0.271c-0.106,0.255,0.015,0.548,0.271,0.653l1.847,0.766
			c0.062,0.026,0.127,0.038,0.191,0.038c0.196,0,0.382-0.116,0.462-0.309C21.343,15.572,21.222,15.279,20.967,15.174z"/>
		<path d="M21.499,11l-2-0.001c-0.276,0-0.5,0.224-0.5,0.5s0.224,0.5,0.5,0.5l2,0.001c0.276,0,0.5-0.224,0.5-0.5
			S21.775,11,21.499,11z"/>
		<path d="M18.466,9.321c0.08,0.192,0.266,0.309,0.462,0.309c0.064,0,0.129-0.012,0.191-0.038l1.848-0.765
			c0.255-0.105,0.376-0.398,0.271-0.653s-0.399-0.377-0.653-0.271l-1.848,0.765C18.482,8.773,18.361,9.066,18.466,9.321z"/>
		<path d="M15.308,5.532C15.371,5.559,15.436,5.57,15.5,5.57c0.196,0,0.382-0.116,0.462-0.309l0.766-1.847
			c0.106-0.255-0.015-0.548-0.271-0.653c-0.254-0.106-0.548,0.016-0.653,0.271l-0.766,1.847C14.932,5.134,15.053,5.427,15.308,5.532
			z"/>
		<path d="M12.5,5.186c0.276,0,0.5-0.224,0.5-0.5v-2c0-0.276-0.224-0.5-0.5-0.5S12,2.409,12,2.686v2
			C12,4.962,12.223,5.186,12.5,5.186z"/>
		<path d="M8.667,5.262C8.747,5.454,8.933,5.57,9.129,5.57c0.064,0,0.129-0.012,0.191-0.038c0.255-0.105,0.376-0.398,0.271-0.653
			L8.827,3.031C8.721,2.776,8.428,2.653,8.173,2.761C7.918,2.866,7.797,3.159,7.903,3.414L8.667,5.262z"/>
		<path d="M7.049,6.343L5.636,4.929c-0.195-0.195-0.512-0.195-0.707,0s-0.195,0.512,0,0.707L6.342,7.05
			C6.44,7.147,6.568,7.196,6.696,7.196S6.952,7.147,7.049,7.05C7.245,6.854,7.245,6.538,7.049,6.343z"/>
		<path d="M5.262,8.668L3.415,7.902C3.161,7.795,2.867,7.918,2.761,8.173C2.655,8.428,2.776,8.721,3.032,8.826l1.847,0.766
			C4.941,9.618,5.006,9.63,5.07,9.63c0.196,0,0.382-0.116,0.462-0.309C5.638,9.066,5.517,8.773,5.262,8.668z"/>
		<path d="M16.5,16h-9C7.223,16,7,16.224,7,16.5v3C7,19.776,7.223,20,7.5,20h9c0.276,0,0.5-0.224,0.5-0.5v-3
			C17,16.224,16.776,16,16.5,16z M16,19H8v-2h8V19z"/>
	</g>
</g>
<g id="invisible_shape">
	<rect fill="none" width="24" height="24"/>
</g>
</svg>
