<?xml version="1.0" encoding="utf-8"?>
<!-- Generator: Adobe Illustrator 16.0.3, SVG Export Plug-In . SVG Version: 6.00 Build 0)  -->
<!DOCTYPE svg PUBLIC "-//W3C//DTD SVG 1.1//EN" "http://www.w3.org/Graphics/SVG/1.1/DTD/svg11.dtd">
<svg version="1.1" xmlns="http://www.w3.org/2000/svg" xmlns:xlink="http://www.w3.org/1999/xlink" x="0px" y="0px" width="24px"
	 height="24px" viewBox="0 0 24 24" enable-background="new 0 0 24 24" xml:space="preserve">
<g id="Outline_Icons">
	<path d="M20.5,0h-18C2.224,0,2,0.224,2,0.5v3C2,3.776,2.224,4,2.5,4S3,3.776,3,3.5V1h8v22H8c-0.276,0-0.5,0.224-0.5,0.5
		S7.724,24,8,24h7c0.276,0,0.5-0.224,0.5-0.5S15.276,23,15,23h-3V1h8v2.5C20,3.776,20.224,4,20.5,4S21,3.776,21,3.5v-3
		C21,0.224,20.776,0,20.5,0z"/>
</g>
<g id="Invisible_Shape">
	<rect fill="none" width="24" height="24"/>
</g>
</svg>
