<?xml version="1.0" encoding="utf-8"?>
<!-- Generator: Adobe Illustrator 16.0.3, SVG Export Plug-In . SVG Version: 6.00 Build 0)  -->
<!DOCTYPE svg PUBLIC "-//W3C//DTD SVG 1.1//EN" "http://www.w3.org/Graphics/SVG/1.1/DTD/svg11.dtd">
<svg version="1.1" xmlns="http://www.w3.org/2000/svg" xmlns:xlink="http://www.w3.org/1999/xlink" x="0px" y="0px" width="24px"
	 height="24px" viewBox="0 0 24 24" enable-background="new 0 0 24 24" xml:space="preserve">
<g id="Outline_Icons">
	<g>
		<path d="M23.5,3h-23C0.224,3,0,3.224,0,3.5v3v11v3C0,20.776,0.224,21,0.5,21h23c0.276,0,0.5-0.224,0.5-0.5v-3v-11v-3
			C24,3.224,23.776,3,23.5,3z M16,18v2H8v-2H16z M1,17V7h22v10H1z M8,6V4h8v2H8z M23,6h-6V4h6V6z M1,4h6v2H1V4z M1,18h6v2H1V18z
			 M23,20h-6v-2h6V20z"/>
		<path d="M15.207,11.545l-5.5-2.5C9.553,8.974,9.373,8.987,9.229,9.08S9,9.33,9,9.5v5c0,0.17,0.086,0.328,0.229,0.42
			C9.312,14.974,9.405,15,9.5,15c0.07,0,0.141-0.015,0.207-0.045l5.5-2.5C15.385,12.374,15.5,12.196,15.5,12
			S15.385,11.626,15.207,11.545z M10,13.724v-3.447L13.792,12L10,13.724z"/>
	</g>
</g>
<g id="Invisible_Shape">
	<rect fill="none" width="24" height="24"/>
</g>
</svg>
