<?xml version="1.0" encoding="utf-8"?>
<!-- Generator: Adobe Illustrator 19.2.1, SVG Export Plug-In . SVG Version: 6.00 Build 0)  -->
<svg version="1.1" xmlns="http://www.w3.org/2000/svg" xmlns:xlink="http://www.w3.org/1999/xlink" x="0px" y="0px" width="24px"
	 height="24px" viewBox="0 0 24 24" enable-background="new 0 0 24 24" xml:space="preserve">
<g id="Outline_Icons_1_">
	<g id="Outline_Icons">
		<g>
			<path d="M23.892,11.689C23.676,11.417,18.519,5,12,5S0.324,11.417,0.108,11.689c-0.144,0.182-0.144,0.439,0,0.621
				C0.324,12.583,5.481,19,12,19s11.676-6.417,11.892-6.689C24.036,12.128,24.036,11.872,23.892,11.689z M12,18
				c-5.247,0-9.734-4.729-10.845-6C2.266,10.729,6.753,6,12,6s9.734,4.729,10.845,6C21.734,13.271,17.247,18,12,18z"/>
			<path d="M12,7.5c-2.481,0-4.5,2.019-4.5,4.5s2.019,4.5,4.5,4.5s4.5-2.019,4.5-4.5S14.481,7.5,12,7.5z M12,15.5
				c-1.93,0-3.5-1.57-3.5-3.5s1.57-3.5,3.5-3.5s3.5,1.57,3.5,3.5S13.93,15.5,12,15.5z"/>
		</g>
	</g>
	<g id="New_icons_1_">
	</g>
</g>
<g id="Invisible_Shape">
	<rect fill="none" width="24" height="24"/>
</g>
</svg>
